<svg xmlns="http://www.w3.org/2000/svg" xmlns:xlink="http://www.w3.org/1999/xlink" contentStyleType="text/css" data-diagram-type="CLASS" height="618px" preserveAspectRatio="none" style="width:1415px;height:618px;background:#FFFFFF;" version="1.1" viewBox="0 0 1415 618" width="1415px" zoomAndPan="magnify"><defs/><g><!--class VesselVisitNotificationsController--><g class="entity" data-entity="VesselVisitNotificationsController" data-source-line="2" data-uid="ent0002" id="entity_VesselVisitNotificationsController"><rect fill="#F1F1F1" height="64.4883" rx="2.5" ry="2.5" style="stroke:#181818;stroke-width:0.5;" width="1209.2871" x="61.5" y="31.73"/><ellipse cx="548.4512" cy="47.73" fill="#ADD1B2" rx="11" ry="11" style="stroke:#181818;stroke-width:1;"/><path d="M551.4243,53.3731 Q550.8433,53.6719 550.2041,53.8213 Q549.5649,53.9707 548.8594,53.9707 Q546.3525,53.9707 545.0327,52.3189 Q543.7129,50.667 543.7129,47.5459 Q543.7129,44.4165 545.0327,42.7647 Q546.3525,41.1128 548.8594,41.1128 Q549.5649,41.1128 550.2124,41.2622 Q550.8599,41.4116 551.4243,41.7105 L551.4243,44.4331 Q550.7935,43.8521 550.2,43.5823 Q549.6064,43.3125 548.9756,43.3125 Q547.6309,43.3125 546.946,44.3792 Q546.2612,45.4458 546.2612,47.5459 Q546.2612,49.6377 546.946,50.7044 Q547.6309,51.771 548.9756,51.771 Q549.6064,51.771 550.2,51.5012 Q550.7935,51.2315 551.4243,50.6504 Z " fill="#000000"/><text fill="#000000" font-family="sans-serif" font-size="14" lengthAdjust="spacing" textLength="226.8848" x="568.9512" y="53.021">VesselVisitNotificationsController</text><line style="stroke:#181818;stroke-width:0.5;" x1="62.5" x2="1269.7871" y1="63.73" y2="63.73"/><line style="stroke:#181818;stroke-width:0.5;" x1="62.5" x2="1269.7871" y1="71.73" y2="71.73"/><ellipse cx="72.5" cy="85.4741" fill="#84BE84" rx="3" ry="3" style="stroke:#038048;stroke-width:1;"/><text fill="#000000" font-family="sans-serif" font-size="14" lengthAdjust="spacing" textLength="1183.2871" x="81.5" y="89.2652">GetBySearch(requesterEmail: string, filterBy: string?, status: VVNStatus?, vesselImo: string?, startDate: DateTime?, endDate: DateTime?): Task&lt;ActionResult&lt;List&lt;VVNDto&gt;&gt;&gt;</text></g><!--class VVNService--><g class="entity" data-entity="VVNService" data-source-line="6" data-uid="ent0003" id="entity_VVNService"><rect fill="#F1F1F1" height="64.4883" rx="2.5" ry="2.5" style="stroke:#181818;stroke-width:0.5;" width="1318.2793" x="7" y="197.95"/><ellipse cx="623.8989" cy="213.95" fill="#ADD1B2" rx="11" ry="11" style="stroke:#181818;stroke-width:1;"/><path d="M626.8721,219.5931 Q626.291,219.8919 625.6519,220.0413 Q625.0127,220.1907 624.3071,220.1907 Q621.8003,220.1907 620.4805,218.5389 Q619.1606,216.887 619.1606,213.7659 Q619.1606,210.6365 620.4805,208.9847 Q621.8003,207.3328 624.3071,207.3328 Q625.0127,207.3328 625.6602,207.4822 Q626.3076,207.6316 626.8721,207.9305 L626.8721,210.6531 Q626.2412,210.0721 625.6477,209.8023 Q625.0542,209.5325 624.4233,209.5325 Q623.0786,209.5325 622.3938,210.5992 Q621.709,211.6658 621.709,213.7659 Q621.709,215.8577 622.3938,216.9244 Q623.0786,217.991 624.4233,217.991 Q625.0542,217.991 625.6477,217.7212 Q626.2412,217.4515 626.8721,216.8704 Z " fill="#000000"/><text fill="#000000" font-family="sans-serif" font-size="14" lengthAdjust="spacing" textLength="75.9814" x="644.3989" y="219.241">VVNService</text><line style="stroke:#181818;stroke-width:0.5;" x1="8" x2="1324.2793" y1="229.95" y2="229.95"/><line style="stroke:#181818;stroke-width:0.5;" x1="8" x2="1324.2793" y1="237.95" y2="237.95"/><ellipse cx="18" cy="251.6941" fill="#84BE84" rx="3" ry="3" style="stroke:#038048;stroke-width:1;"/><text fill="#000000" font-family="sans-serif" font-size="14" lengthAdjust="spacing" textLength="1292.2793" x="27" y="255.4852">GetFilteredAsync(companyCode: string?, representativeEmail: string?, status: VVNStatus?, vesselImo: string?, startDate: DateTime?, endDate: DateTime?): Task&lt;List&lt;VesselVisitNotification&gt;&gt;</text></g><!--class VVNRepository--><g class="entity" data-entity="VVNRepository" data-source-line="10" data-uid="ent0004" id="entity_VVNRepository"><rect fill="#F1F1F1" height="64.4883" rx="2.5" ry="2.5" style="stroke:#181818;stroke-width:0.5;" width="1318.2793" x="7" y="339.44"/><ellipse cx="611.502" cy="355.44" fill="#ADD1B2" rx="11" ry="11" style="stroke:#181818;stroke-width:1;"/><path d="M614.4751,361.0831 Q613.894,361.3819 613.2549,361.5313 Q612.6157,361.6807 611.9102,361.6807 Q609.4033,361.6807 608.0835,360.0289 Q606.7637,358.377 606.7637,355.2559 Q606.7637,352.1265 608.0835,350.4747 Q609.4033,348.8228 611.9102,348.8228 Q612.6157,348.8228 613.2632,348.9722 Q613.9106,349.1216 614.4751,349.4205 L614.4751,352.1431 Q613.8442,351.5621 613.2507,351.2923 Q612.6572,351.0225 612.0264,351.0225 Q610.6816,351.0225 609.9968,352.0892 Q609.312,353.1558 609.312,355.2559 Q609.312,357.3477 609.9968,358.4144 Q610.6816,359.481 612.0264,359.481 Q612.6572,359.481 613.2507,359.2112 Q613.8442,358.9415 614.4751,358.3604 Z " fill="#000000"/><text fill="#000000" font-family="sans-serif" font-size="14" lengthAdjust="spacing" textLength="100.7754" x="632.002" y="360.731">VVNRepository</text><line style="stroke:#181818;stroke-width:0.5;" x1="8" x2="1324.2793" y1="371.44" y2="371.44"/><line style="stroke:#181818;stroke-width:0.5;" x1="8" x2="1324.2793" y1="379.44" y2="379.44"/><ellipse cx="18" cy="393.1841" fill="#84BE84" rx="3" ry="3" style="stroke:#038048;stroke-width:1;"/><text fill="#000000" font-family="sans-serif" font-size="14" lengthAdjust="spacing" textLength="1292.2793" x="27" y="396.9752">GetFilteredAsync(companyCode: string?, representativeEmail: string?, status: VVNStatus?, vesselImo: string?, startDate: DateTime?, endDate: DateTime?): Task&lt;List&lt;VesselVisitNotification&gt;&gt;</text></g><!--class VesselVisitNotification--><g class="entity" data-entity="VesselVisitNotification" data-source-line="14" data-uid="ent0005" id="entity_VesselVisitNotification"><rect fill="#F1F1F1" height="130.4414" rx="2.5" ry="2.5" style="stroke:#181818;stroke-width:0.5;" width="208.9023" x="561.69" y="480.93"/><ellipse cx="588.0819" cy="496.93" fill="#ADD1B2" rx="11" ry="11" style="stroke:#181818;stroke-width:1;"/><path d="M591.0551,502.5731 Q590.474,502.8719 589.8349,503.0213 Q589.1957,503.1707 588.4901,503.1707 Q585.9833,503.1707 584.6635,501.5189 Q583.3437,499.867 583.3437,496.7459 Q583.3437,493.6165 584.6635,491.9647 Q585.9833,490.3128 588.4901,490.3128 Q589.1957,490.3128 589.8432,490.4622 Q590.4906,490.6116 591.0551,490.9105 L591.0551,493.6331 Q590.4242,493.0521 589.8307,492.7823 Q589.2372,492.5125 588.6064,492.5125 Q587.2616,492.5125 586.5768,493.5792 Q585.892,494.6458 585.892,496.7459 Q585.892,498.8377 586.5768,499.9044 Q587.2616,500.971 588.6064,500.971 Q589.2372,500.971 589.8307,500.7012 Q590.4242,500.4315 591.0551,499.8504 Z " fill="#000000"/><text fill="#000000" font-family="sans-serif" font-size="14" lengthAdjust="spacing" textLength="151.5869" x="604.6135" y="502.221">VesselVisitNotification</text><line style="stroke:#181818;stroke-width:0.5;" x1="562.69" x2="769.5923" y1="512.93" y2="512.93"/><ellipse cx="572.69" cy="526.6741" fill="none" rx="3" ry="3" style="stroke:#038048;stroke-width:1;"/><text fill="#000000" font-family="sans-serif" font-size="14" lengthAdjust="spacing" textLength="61.7285" x="581.69" y="530.4652">Code: int</text><ellipse cx="572.69" cy="543.1624" fill="none" rx="3" ry="3" style="stroke:#038048;stroke-width:1;"/><text fill="#000000" font-family="sans-serif" font-size="14" lengthAdjust="spacing" textLength="117.2021" x="581.69" y="546.9534">VesselImo: string</text><ellipse cx="572.69" cy="559.6507" fill="none" rx="3" ry="3" style="stroke:#038048;stroke-width:1;"/><text fill="#000000" font-family="sans-serif" font-size="14" lengthAdjust="spacing" textLength="120.6475" x="581.69" y="563.4417">Status: VVNStatus</text><ellipse cx="572.69" cy="576.139" fill="none" rx="3" ry="3" style="stroke:#038048;stroke-width:1;"/><text fill="#000000" font-family="sans-serif" font-size="14" lengthAdjust="spacing" textLength="182.9023" x="581.69" y="579.93">SubmissionDate: DateTime</text><ellipse cx="572.69" cy="592.6273" fill="none" rx="3" ry="3" style="stroke:#038048;stroke-width:1;"/><text fill="#000000" font-family="sans-serif" font-size="14" lengthAdjust="spacing" textLength="150.7803" x="581.69" y="596.4183">AssignedDock: string?</text><line style="stroke:#181818;stroke-width:0.5;" x1="562.69" x2="769.5923" y1="603.3714" y2="603.3714"/></g><!--class VVNStatus--><g class="entity" data-entity="VVNStatus" data-source-line="22" data-uid="ent0006" id="entity_VVNStatus"><rect fill="#F1F1F1" height="113.9531" rx="2.5" ry="2.5" style="stroke:#181818;stroke-width:0.5;" width="102.2188" x="1306.03" y="7"/><ellipse cx="1321.03" cy="23" fill="#EB937F" rx="11" ry="11" style="stroke:#181818;stroke-width:1;"/><path d="M1325.1443,29 L1317.4245,29 L1317.4245,16.6069 L1325.1443,16.6069 L1325.1443,18.7651 L1319.8733,18.7651 L1319.8733,21.438 L1324.6462,21.438 L1324.6462,23.5962 L1319.8733,23.5962 L1319.8733,26.8418 L1325.1443,26.8418 Z " fill="#000000"/><text fill="#000000" font-family="sans-serif" font-size="14" lengthAdjust="spacing" textLength="70.2188" x="1335.03" y="28.291">VVNStatus</text><line style="stroke:#181818;stroke-width:0.5;" x1="1307.03" x2="1407.2488" y1="39" y2="39"/><text fill="#000000" font-family="sans-serif" font-size="14" lengthAdjust="spacing" textLength="71.3193" x="1312.03" y="56.5352">InProgress</text><text fill="#000000" font-family="sans-serif" font-size="14" lengthAdjust="spacing" textLength="69.2412" x="1312.03" y="73.0234">Submitted</text><text fill="#000000" font-family="sans-serif" font-size="14" lengthAdjust="spacing" textLength="65.4678" x="1312.03" y="89.5117">Approved</text><text fill="#000000" font-family="sans-serif" font-size="14" lengthAdjust="spacing" textLength="57.7295" x="1312.03" y="106">Rejected</text><line style="stroke:#181818;stroke-width:0.5;" x1="1307.03" x2="1407.2488" y1="112.9531" y2="112.9531"/></g><!--link VesselVisitNotificationsController to VVNService--><g class="link" data-entity-1="VesselVisitNotificationsController" data-entity-2="VVNService" data-source-line="29" data-uid="lnk7" id="link_VesselVisitNotificationsController_VVNService"><path codeLine="29" d="M666.14,96.64 C666.14,125.72 666.14,162.58 666.14,191.63" fill="none" id="VesselVisitNotificationsController-to-VVNService" style="stroke:#181818;stroke-width:1;"/><polygon fill="#181818" points="666.14,197.63,670.14,188.63,666.14,192.63,662.14,188.63,666.14,197.63" style="stroke:#181818;stroke-width:1;"/><polygon fill="#000000" points="671.14,164.6053,674.0789,155.5602,668.2011,155.5602,671.14,164.6053" style="stroke:#000000;stroke-width:1;"/><text fill="#000000" font-family="sans-serif" font-size="13" lengthAdjust="spacing" textLength="28.5645" x="680.14" y="164.5184">uses</text></g><!--link VVNService to VVNRepository--><g class="link" data-entity-1="VVNService" data-entity-2="VVNRepository" data-source-line="30" data-uid="lnk8" id="link_VVNService_VVNRepository"><path codeLine="30" d="M666.14,262.85 C666.14,285.68 666.14,310.36 666.14,333.16" fill="none" id="VVNService-to-VVNRepository" style="stroke:#181818;stroke-width:1;"/><polygon fill="#181818" points="666.14,339.16,670.14,330.16,666.14,334.16,662.14,330.16,666.14,339.16" style="stroke:#181818;stroke-width:1;"/><polygon fill="#000000" points="671.14,306.0953,674.0789,297.0502,668.2011,297.0502,671.14,306.0953" style="stroke:#000000;stroke-width:1;"/><text fill="#000000" font-family="sans-serif" font-size="13" lengthAdjust="spacing" textLength="77.9556" x="680.14" y="306.0084">queries data</text></g><!--link VVNRepository to VesselVisitNotification--><g class="link" data-entity-1="VVNRepository" data-entity-2="VesselVisitNotification" data-source-line="31" data-uid="lnk9" id="link_VVNRepository_VesselVisitNotification"><path codeLine="31" d="M666.14,404.32 C666.14,425.61 666.14,448.46 666.14,474.5" fill="none" id="VVNRepository-to-VesselVisitNotification" style="stroke:#181818;stroke-width:1;"/><polygon fill="#181818" points="666.14,480.5,670.14,471.5,666.14,475.5,662.14,471.5,666.14,480.5" style="stroke:#181818;stroke-width:1;"/><polygon fill="#000000" points="671.14,447.5853,674.0789,438.5402,668.2011,438.5402,671.14,447.5853" style="stroke:#000000;stroke-width:1;"/><text fill="#000000" font-family="sans-serif" font-size="13" lengthAdjust="spacing" textLength="45.5063" x="680.14" y="447.4984">returns</text></g><!--SRC=[tLF1JiCm3BttAt8SOln0D1Lr6w19Q4BRr7j8lH7M9YLsArM8VyTjEkYg8N7XGWvL_FnglvSuEbU88WL4o5E3XjQEpDveHSPPN3XBtkKvUF4U2LxN3q3pPWlAwvU9XxSAaC3V5ShaKY1vOmzJiJSvW_FcXDnEUQEeGYdITBtjjepLNTDLuSvvdfQAG8hskpC5C0es6s5NKkmK7cU9RdLk0AkSPey6QSOTbkJYE8u-eaW7TzmKV6qq35pSTo8XIx2nUg9TKIhRB5m60pKUIWy8bXMR6ivS_g6dOEFoZOniRQ1qp72- -L_EBbDE7eCNOoc4wLXPWBTZ4prSFHS6aSkTYmpPX3C72zdIwUENqLOOsAhuBjKhMTadxmvyaA5sLve8iYvAojAxkWysy0gwpN2fNposcvjuEBLIL0WeucY0zPJ114Z1pz4R9cQAL60FqjqFFnoiv86WoblkyGa0]--></g></svg>