<svg xmlns="http://www.w3.org/2000/svg" xmlns:xlink="http://www.w3.org/1999/xlink" contentStyleType="text/css" data-diagram-type="CLASS" height="526px" preserveAspectRatio="none" style="width:1909px;height:526px;background:#FFFFFF;" version="1.1" viewBox="0 0 1909 526" width="1909px" zoomAndPan="magnify"><defs/><g><!--class VesselVisitNotificationsController--><g class="entity" data-entity="VesselVisitNotificationsController" data-source-line="2" data-uid="ent0002" id="entity_VesselVisitNotificationsController"><rect fill="#F1F1F1" height="80.9766" rx="2.5" ry="2.5" style="stroke:#181818;stroke-width:0.5;" width="539.2285" x="189.22" y="48.22"/><ellipse cx="341.1419" cy="64.22" fill="#ADD1B2" rx="11" ry="11" style="stroke:#181818;stroke-width:1;"/><path d="M344.115,69.8631 Q343.534,70.1619 342.8948,70.3113 Q342.2556,70.4607 341.5501,70.4607 Q339.0432,70.4607 337.7234,68.8089 Q336.4036,67.157 336.4036,64.0359 Q336.4036,60.9065 337.7234,59.2547 Q339.0432,57.6028 341.5501,57.6028 Q342.2556,57.6028 342.9031,57.7522 Q343.5506,57.9016 344.115,58.2005 L344.115,60.9231 Q343.4842,60.3421 342.8907,60.0723 Q342.2971,59.8025 341.6663,59.8025 Q340.3216,59.8025 339.6367,60.8692 Q338.9519,61.9358 338.9519,64.0359 Q338.9519,66.1277 339.6367,67.1944 Q340.3216,68.261 341.6663,68.261 Q342.2971,68.261 342.8907,67.9912 Q343.4842,67.7215 344.115,67.1404 Z " fill="#000000"/><text fill="#000000" font-family="sans-serif" font-size="14" lengthAdjust="spacing" textLength="226.8848" x="361.6419" y="69.511">VesselVisitNotificationsController</text><line style="stroke:#181818;stroke-width:0.5;" x1="190.22" x2="727.4485" y1="80.22" y2="80.22"/><line style="stroke:#181818;stroke-width:0.5;" x1="190.22" x2="727.4485" y1="88.22" y2="88.22"/><ellipse cx="200.22" cy="101.9641" fill="#84BE84" rx="3" ry="3" style="stroke:#038048;stroke-width:1;"/><text fill="#000000" font-family="sans-serif" font-size="14" lengthAdjust="spacing" textLength="360.8896" x="209.22" y="105.7552">CreateAsync(vvnDto: VVNDto, requesterEmail: string)</text><ellipse cx="200.22" cy="118.4524" fill="#84BE84" rx="3" ry="3" style="stroke:#038048;stroke-width:1;"/><text fill="#000000" font-family="sans-serif" font-size="14" lengthAdjust="spacing" textLength="513.2285" x="209.22" y="122.2434">UpdateStatusAsync(code: int, newStatus: VVNStatus, requesterEmail: string)</text></g><!--class VVNRepository--><g class="entity" data-entity="VVNRepository" data-source-line="7" data-uid="ent0003" id="entity_VVNRepository"><rect fill="#F1F1F1" height="80.9766" rx="2.5" ry="2.5" style="stroke:#181818;stroke-width:0.5;" width="567.6592" x="7" y="255.66"/><ellipse cx="236.1919" cy="271.66" fill="#ADD1B2" rx="11" ry="11" style="stroke:#181818;stroke-width:1;"/><path d="M239.165,277.3031 Q238.584,277.6019 237.9448,277.7513 Q237.3057,277.9007 236.6001,277.9007 Q234.0933,277.9007 232.7734,276.2489 Q231.4536,274.597 231.4536,271.4759 Q231.4536,268.3465 232.7734,266.6947 Q234.0933,265.0428 236.6001,265.0428 Q237.3057,265.0428 237.9531,265.1922 Q238.6006,265.3416 239.165,265.6405 L239.165,268.3631 Q238.5342,267.7821 237.9407,267.5123 Q237.3472,267.2425 236.7163,267.2425 Q235.3716,267.2425 234.6868,268.3092 Q234.002,269.3758 234.002,271.4759 Q234.002,273.5677 234.6868,274.6344 Q235.3716,275.701 236.7163,275.701 Q237.3472,275.701 237.9407,275.4312 Q238.5342,275.1615 239.165,274.5804 Z " fill="#000000"/><text fill="#000000" font-family="sans-serif" font-size="14" lengthAdjust="spacing" textLength="100.7754" x="256.6919" y="276.951">VVNRepository</text><line style="stroke:#181818;stroke-width:0.5;" x1="8" x2="573.6592" y1="287.66" y2="287.66"/><line style="stroke:#181818;stroke-width:0.5;" x1="8" x2="573.6592" y1="295.66" y2="295.66"/><ellipse cx="18" cy="309.4041" fill="#84BE84" rx="3" ry="3" style="stroke:#038048;stroke-width:1;"/><text fill="#000000" font-family="sans-serif" font-size="14" lengthAdjust="spacing" textLength="357.6768" x="27" y="313.1952">CreateAsync(vvn: VesselVisitNotification): Task&lt;int&gt;</text><ellipse cx="18" cy="325.8924" fill="#84BE84" rx="3" ry="3" style="stroke:#038048;stroke-width:1;"/><text fill="#000000" font-family="sans-serif" font-size="14" lengthAdjust="spacing" textLength="541.6592" x="27" y="329.6834">UpdateStatusAsync(code: int, status: VVNStatus): Task&lt;VesselVisitNotification&gt;</text></g><!--class CargoManifestRepository--><g class="entity" data-entity="CargoManifestRepository" data-source-line="12" data-uid="ent0004" id="entity_CargoManifestRepository"><rect fill="#F1F1F1" height="80.9766" rx="2.5" ry="2.5" style="stroke:#181818;stroke-width:0.5;" width="534.2178" x="609.72" y="255.66"/><ellipse cx="787.3553" cy="271.66" fill="#ADD1B2" rx="11" ry="11" style="stroke:#181818;stroke-width:1;"/><path d="M790.3284,277.3031 Q789.7473,277.6019 789.1082,277.7513 Q788.469,277.9007 787.7635,277.9007 Q785.2566,277.9007 783.9368,276.2489 Q782.617,274.597 782.617,271.4759 Q782.617,268.3465 783.9368,266.6947 Q785.2566,265.0428 787.7635,265.0428 Q788.469,265.0428 789.1165,265.1922 Q789.7639,265.3416 790.3284,265.6405 L790.3284,268.3631 Q789.6975,267.7821 789.104,267.5123 Q788.5105,267.2425 787.8797,267.2425 Q786.5349,267.2425 785.8501,268.3092 Q785.1653,269.3758 785.1653,271.4759 Q785.1653,273.5677 785.8501,274.6344 Q786.5349,275.701 787.8797,275.701 Q788.5105,275.701 789.104,275.4312 Q789.6975,275.1615 790.3284,274.5804 Z " fill="#000000"/><text fill="#000000" font-family="sans-serif" font-size="14" lengthAdjust="spacing" textLength="170.4473" x="807.8553" y="276.951">CargoManifestRepository</text><line style="stroke:#181818;stroke-width:0.5;" x1="610.72" x2="1142.9378" y1="287.66" y2="287.66"/><line style="stroke:#181818;stroke-width:0.5;" x1="610.72" x2="1142.9378" y1="295.66" y2="295.66"/><ellipse cx="620.72" cy="309.4041" fill="#84BE84" rx="3" ry="3" style="stroke:#038048;stroke-width:1;"/><text fill="#000000" font-family="sans-serif" font-size="14" lengthAdjust="spacing" textLength="361.6826" x="629.72" y="313.1952">CreateAsync(manifest: CargoManifest): Task&lt;string&gt;</text><ellipse cx="620.72" cy="325.8924" fill="#84BE84" rx="3" ry="3" style="stroke:#038048;stroke-width:1;"/><text fill="#000000" font-family="sans-serif" font-size="14" lengthAdjust="spacing" textLength="508.2178" x="629.72" y="329.6834">UpdateAsync(code: string, dto: CargoManifestDTO): Task&lt;CargoManifest&gt;</text></g><!--class CargoItemRepository--><g class="entity" data-entity="CargoItemRepository" data-source-line="17" data-uid="ent0005" id="entity_CargoItemRepository"><rect fill="#F1F1F1" height="80.9766" rx="2.5" ry="2.5" style="stroke:#181818;stroke-width:0.5;" width="374.7422" x="689.46" y="430.13"/><ellipse cx="801.2105" cy="446.13" fill="#ADD1B2" rx="11" ry="11" style="stroke:#181818;stroke-width:1;"/><path d="M804.1836,451.7731 Q803.6026,452.0719 802.9634,452.2213 Q802.3243,452.3707 801.6187,452.3707 Q799.1119,452.3707 797.792,450.7189 Q796.4722,449.067 796.4722,445.9459 Q796.4722,442.8165 797.792,441.1647 Q799.1119,439.5128 801.6187,439.5128 Q802.3243,439.5128 802.9717,439.6622 Q803.6192,439.8116 804.1836,440.1105 L804.1836,442.8331 Q803.5528,442.2521 802.9593,441.9823 Q802.3658,441.7125 801.7349,441.7125 Q800.3902,441.7125 799.7054,442.7792 Q799.0205,443.8458 799.0205,445.9459 Q799.0205,448.0377 799.7054,449.1044 Q800.3902,450.171 801.7349,450.171 Q802.3658,450.171 802.9593,449.9012 Q803.5528,449.6315 804.1836,449.0504 Z " fill="#000000"/><text fill="#000000" font-family="sans-serif" font-size="14" lengthAdjust="spacing" textLength="142.7412" x="821.7105" y="451.421">CargoItemRepository</text><line style="stroke:#181818;stroke-width:0.5;" x1="690.46" x2="1063.2022" y1="462.13" y2="462.13"/><line style="stroke:#181818;stroke-width:0.5;" x1="690.46" x2="1063.2022" y1="470.13" y2="470.13"/><ellipse cx="700.46" cy="483.8741" fill="#84BE84" rx="3" ry="3" style="stroke:#038048;stroke-width:1;"/><text fill="#000000" font-family="sans-serif" font-size="14" lengthAdjust="spacing" textLength="305.2725" x="709.46" y="487.6652">CreateAsync(item: CargoItem): Task&lt;string&gt;</text><ellipse cx="700.46" cy="500.3624" fill="#84BE84" rx="3" ry="3" style="stroke:#038048;stroke-width:1;"/><text fill="#000000" font-family="sans-serif" font-size="14" lengthAdjust="spacing" textLength="348.7422" x="709.46" y="504.1534">FindByCodeAsync(code: string): Task&lt;CargoItem?&gt;</text></g><!--class VesselVisitNotification--><g class="entity" data-entity="VesselVisitNotification" data-source-line="22" data-uid="ent0006" id="entity_VesselVisitNotification"><rect fill="#F1F1F1" height="163.418" rx="2.5" ry="2.5" style="stroke:#181818;stroke-width:0.5;" width="326.6582" x="1234.5" y="7"/><ellipse cx="1317.7856" cy="23" fill="#ADD1B2" rx="11" ry="11" style="stroke:#181818;stroke-width:1;"/><path d="M1320.7588,28.6431 Q1320.1777,28.9419 1319.5386,29.0913 Q1318.8994,29.2407 1318.1938,29.2407 Q1315.687,29.2407 1314.3672,27.5889 Q1313.0474,25.937 1313.0474,22.8159 Q1313.0474,19.6865 1314.3672,18.0347 Q1315.687,16.3828 1318.1938,16.3828 Q1318.8994,16.3828 1319.5469,16.5322 Q1320.1943,16.6816 1320.7588,16.9805 L1320.7588,19.7031 Q1320.1279,19.1221 1319.5344,18.8523 Q1318.9409,18.5825 1318.3101,18.5825 Q1316.9653,18.5825 1316.2805,19.6492 Q1315.5957,20.7158 1315.5957,22.8159 Q1315.5957,24.9077 1316.2805,25.9744 Q1316.9653,27.041 1318.3101,27.041 Q1318.9409,27.041 1319.5344,26.7712 Q1320.1279,26.5015 1320.7588,25.9204 Z " fill="#000000"/><text fill="#000000" font-family="sans-serif" font-size="14" lengthAdjust="spacing" textLength="151.5869" x="1338.2856" y="28.291">VesselVisitNotification</text><line style="stroke:#181818;stroke-width:0.5;" x1="1235.5" x2="1560.1582" y1="39" y2="39"/><ellipse cx="1245.5" cy="52.7441" fill="none" rx="3" ry="3" style="stroke:#038048;stroke-width:1;"/><text fill="#000000" font-family="sans-serif" font-size="14" lengthAdjust="spacing" textLength="61.7285" x="1254.5" y="56.5352">Code: int</text><ellipse cx="1245.5" cy="69.2324" fill="none" rx="3" ry="3" style="stroke:#038048;stroke-width:1;"/><text fill="#000000" font-family="sans-serif" font-size="14" lengthAdjust="spacing" textLength="99.9824" x="1254.5" y="73.0234">ETA: DateTime</text><ellipse cx="1245.5" cy="85.7207" fill="none" rx="3" ry="3" style="stroke:#038048;stroke-width:1;"/><text fill="#000000" font-family="sans-serif" font-size="14" lengthAdjust="spacing" textLength="100.8096" x="1254.5" y="89.5117">ETD: DateTime</text><ellipse cx="1245.5" cy="102.209" fill="none" rx="3" ry="3" style="stroke:#038048;stroke-width:1;"/><text fill="#000000" font-family="sans-serif" font-size="14" lengthAdjust="spacing" textLength="120.6475" x="1254.5" y="106">Status: VVNStatus</text><ellipse cx="1245.5" cy="118.6973" fill="none" rx="3" ry="3" style="stroke:#038048;stroke-width:1;"/><text fill="#000000" font-family="sans-serif" font-size="14" lengthAdjust="spacing" textLength="270.7168" x="1254.5" y="122.4883">CargoLoadManifest: CargoLoadManifest</text><ellipse cx="1245.5" cy="135.1855" fill="none" rx="3" ry="3" style="stroke:#038048;stroke-width:1;"/><text fill="#000000" font-family="sans-serif" font-size="14" lengthAdjust="spacing" textLength="300.6582" x="1254.5" y="138.9766">CargoUnloadManifest: CargoUnloadManifest</text><ellipse cx="1245.5" cy="151.6738" fill="none" rx="3" ry="3" style="stroke:#038048;stroke-width:1;"/><text fill="#000000" font-family="sans-serif" font-size="14" lengthAdjust="spacing" textLength="198.4609" x="1254.5" y="155.4648">CrewManifest: CrewManifest?</text><line style="stroke:#181818;stroke-width:0.5;" x1="1235.5" x2="1560.1582" y1="162.418" y2="162.418"/></g><!--class CargoManifest--><g class="entity" data-entity="CargoManifest" data-source-line="32" data-uid="ent0007" id="entity_CargoManifest"><rect fill="#F1F1F1" height="97.4648" rx="2.5" ry="2.5" style="stroke:#181818;stroke-width:0.5;" width="229.3691" x="1179.14" y="247.42"/><ellipse cx="1240.4139" cy="263.42" fill="#ADD1B2" rx="11" ry="11" style="stroke:#181818;stroke-width:1;"/><path d="M1243.3871,269.0631 Q1242.806,269.3619 1242.1669,269.5113 Q1241.5277,269.6607 1240.8221,269.6607 Q1238.3153,269.6607 1236.9955,268.0089 Q1235.6756,266.357 1235.6756,263.2359 Q1235.6756,260.1065 1236.9955,258.4547 Q1238.3153,256.8028 1240.8221,256.8028 Q1241.5277,256.8028 1242.1752,256.9522 Q1242.8226,257.1016 1243.3871,257.4005 L1243.3871,260.1231 Q1242.7562,259.5421 1242.1627,259.2723 Q1241.5692,259.0025 1240.9383,259.0025 Q1239.5936,259.0025 1238.9088,260.0692 Q1238.224,261.1358 1238.224,263.2359 Q1238.224,265.3277 1238.9088,266.3944 Q1239.5936,267.461 1240.9383,267.461 Q1241.5692,267.461 1242.1627,267.1912 Q1242.7562,266.9215 1243.3871,266.3404 Z " fill="#000000"/><text fill="#000000" font-family="sans-serif" font-size="14" lengthAdjust="spacing" textLength="98.3213" x="1260.9139" y="268.711">CargoManifest</text><line style="stroke:#181818;stroke-width:0.5;" x1="1180.14" x2="1407.5091" y1="279.42" y2="279.42"/><ellipse cx="1190.14" cy="293.1641" fill="none" rx="3" ry="3" style="stroke:#038048;stroke-width:1;"/><text fill="#000000" font-family="sans-serif" font-size="14" lengthAdjust="spacing" textLength="83.3232" x="1199.14" y="296.9552">Code: string</text><ellipse cx="1190.14" cy="309.6524" fill="none" rx="3" ry="3" style="stroke:#038048;stroke-width:1;"/><text fill="#000000" font-family="sans-serif" font-size="14" lengthAdjust="spacing" textLength="155.3672" x="1199.14" y="313.4434">CargoType: CargoType</text><ellipse cx="1190.14" cy="326.1407" fill="none" rx="3" ry="3" style="stroke:#038048;stroke-width:1;"/><text fill="#000000" font-family="sans-serif" font-size="14" lengthAdjust="spacing" textLength="203.3691" x="1199.14" y="329.9317">CargoItems: List&lt;CargoItem&gt;</text><line style="stroke:#181818;stroke-width:0.5;" x1="1180.14" x2="1407.5091" y1="336.8848" y2="336.8848"/></g><!--class CargoItem--><g class="entity" data-entity="CargoItem" data-source-line="38" data-uid="ent0008" id="entity_CargoItem"><rect fill="#F1F1F1" height="130.4414" rx="2.5" ry="2.5" style="stroke:#181818;stroke-width:0.5;" width="170.2725" x="1595.69" y="23.49"/><ellipse cx="1641.2686" cy="39.49" fill="#ADD1B2" rx="11" ry="11" style="stroke:#181818;stroke-width:1;"/><path d="M1644.2418,45.1331 Q1643.6607,45.4319 1643.0215,45.5813 Q1642.3824,45.7307 1641.6768,45.7307 Q1639.17,45.7307 1637.8502,44.0789 Q1636.5303,42.427 1636.5303,39.3059 Q1636.5303,36.1765 1637.8502,34.5247 Q1639.17,32.8728 1641.6768,32.8728 Q1642.3824,32.8728 1643.0298,33.0222 Q1643.6773,33.1716 1644.2418,33.4705 L1644.2418,36.1931 Q1643.6109,35.6121 1643.0174,35.3423 Q1642.4239,35.0725 1641.793,35.0725 Q1640.4483,35.0725 1639.7635,36.1392 Q1639.0787,37.2058 1639.0787,39.3059 Q1639.0787,41.3977 1639.7635,42.4644 Q1640.4483,43.531 1641.793,43.531 Q1642.4239,43.531 1643.0174,43.2612 Q1643.6109,42.9915 1644.2418,42.4104 Z " fill="#000000"/><text fill="#000000" font-family="sans-serif" font-size="14" lengthAdjust="spacing" textLength="70.6152" x="1661.7686" y="44.781">CargoItem</text><line style="stroke:#181818;stroke-width:0.5;" x1="1596.69" x2="1764.9625" y1="55.49" y2="55.49"/><ellipse cx="1606.69" cy="69.2341" fill="none" rx="3" ry="3" style="stroke:#038048;stroke-width:1;"/><text fill="#000000" font-family="sans-serif" font-size="14" lengthAdjust="spacing" textLength="83.3232" x="1615.69" y="73.0252">Code: string</text><ellipse cx="1606.69" cy="85.7224" fill="none" rx="3" ry="3" style="stroke:#038048;stroke-width:1;"/><text fill="#000000" font-family="sans-serif" font-size="14" lengthAdjust="spacing" textLength="144.2725" x="1615.69" y="89.5134">ContainerISO: double</text><ellipse cx="1606.69" cy="102.2107" fill="none" rx="3" ry="3" style="stroke:#038048;stroke-width:1;"/><text fill="#000000" font-family="sans-serif" font-size="14" lengthAdjust="spacing" textLength="126.1777" x="1615.69" y="106.0017">Description: string</text><ellipse cx="1606.69" cy="118.699" fill="none" rx="3" ry="3" style="stroke:#038048;stroke-width:1;"/><text fill="#000000" font-family="sans-serif" font-size="14" lengthAdjust="spacing" textLength="83.3301" x="1615.69" y="122.49">From: string</text><ellipse cx="1606.69" cy="135.1873" fill="none" rx="3" ry="3" style="stroke:#038048;stroke-width:1;"/><text fill="#000000" font-family="sans-serif" font-size="14" lengthAdjust="spacing" textLength="65.8779" x="1615.69" y="138.9783">To: string</text><line style="stroke:#181818;stroke-width:0.5;" x1="1596.69" x2="1764.9625" y1="145.9314" y2="145.9314"/></g><!--class CrewManifest--><g class="entity" data-entity="CrewManifest" data-source-line="46" data-uid="ent0009" id="entity_CrewManifest"><rect fill="#F1F1F1" height="64.4883" rx="2.5" ry="2.5" style="stroke:#181818;stroke-width:0.5;" width="266.6797" x="1443.49" y="263.91"/><ellipse cx="1526.656" cy="279.91" fill="#ADD1B2" rx="11" ry="11" style="stroke:#181818;stroke-width:1;"/><path d="M1529.6292,285.5531 Q1529.0481,285.8519 1528.4089,286.0013 Q1527.7698,286.1507 1527.0642,286.1507 Q1524.5574,286.1507 1523.2376,284.4989 Q1521.9177,282.847 1521.9177,279.7259 Q1521.9177,276.5965 1523.2376,274.9447 Q1524.5574,273.2928 1527.0642,273.2928 Q1527.7698,273.2928 1528.4172,273.4422 Q1529.0647,273.5916 1529.6292,273.8905 L1529.6292,276.6131 Q1528.9983,276.0321 1528.4048,275.7623 Q1527.8113,275.4925 1527.1804,275.4925 Q1525.8357,275.4925 1525.1509,276.5592 Q1524.4661,277.6258 1524.4661,279.7259 Q1524.4661,281.8177 1525.1509,282.8844 Q1525.8357,283.951 1527.1804,283.951 Q1527.8113,283.951 1528.4048,283.6812 Q1528.9983,283.4115 1529.6292,282.8304 Z " fill="#000000"/><text fill="#000000" font-family="sans-serif" font-size="14" lengthAdjust="spacing" textLength="91.8477" x="1547.156" y="285.201">CrewManifest</text><line style="stroke:#181818;stroke-width:0.5;" x1="1444.49" x2="1709.1697" y1="295.91" y2="295.91"/><ellipse cx="1454.49" cy="309.6541" fill="none" rx="3" ry="3" style="stroke:#038048;stroke-width:1;"/><text fill="#000000" font-family="sans-serif" font-size="14" lengthAdjust="spacing" textLength="240.6797" x="1463.49" y="313.4452">CrewMembers: List&lt;CrewMember&gt;</text><line style="stroke:#181818;stroke-width:0.5;" x1="1444.49" x2="1709.1697" y1="320.3983" y2="320.3983"/></g><!--class CrewMember--><g class="entity" data-entity="CrewMember" data-source-line="50" data-uid="ent0010" id="entity_CrewMember"><rect fill="#F1F1F1" height="97.4648" rx="2.5" ry="2.5" style="stroke:#181818;stroke-width:0.5;" width="147.4473" x="1503.11" y="421.89"/><ellipse cx="1529.8895" cy="437.89" fill="#ADD1B2" rx="11" ry="11" style="stroke:#181818;stroke-width:1;"/><path d="M1532.8627,443.5331 Q1532.2816,443.8319 1531.6425,443.9813 Q1531.0033,444.1307 1530.2977,444.1307 Q1527.7909,444.1307 1526.4711,442.4789 Q1525.1513,440.827 1525.1513,437.7059 Q1525.1513,434.5765 1526.4711,432.9247 Q1527.7909,431.2728 1530.2977,431.2728 Q1531.0033,431.2728 1531.6508,431.4222 Q1532.2982,431.5716 1532.8627,431.8705 L1532.8627,434.5931 Q1532.2318,434.0121 1531.6383,433.7423 Q1531.0448,433.4725 1530.414,433.4725 Q1529.0692,433.4725 1528.3844,434.5392 Q1527.6996,435.6058 1527.6996,437.7059 Q1527.6996,439.7977 1528.3844,440.8644 Q1529.0692,441.931 1530.414,441.931 Q1531.0448,441.931 1531.6383,441.6612 Q1532.2318,441.3915 1532.8627,440.8104 Z " fill="#000000"/><text fill="#000000" font-family="sans-serif" font-size="14" lengthAdjust="spacing" textLength="89.2705" x="1546.5072" y="443.181">CrewMember</text><line style="stroke:#181818;stroke-width:0.5;" x1="1504.11" x2="1649.5573" y1="453.89" y2="453.89"/><ellipse cx="1514.11" cy="467.6341" fill="none" rx="3" ry="3" style="stroke:#038048;stroke-width:1;"/><text fill="#000000" font-family="sans-serif" font-size="14" lengthAdjust="spacing" textLength="111.6582" x="1523.11" y="471.4252">FullName: string</text><ellipse cx="1514.11" cy="484.1224" fill="none" rx="3" ry="3" style="stroke:#038048;stroke-width:1;"/><text fill="#000000" font-family="sans-serif" font-size="14" lengthAdjust="spacing" textLength="115.8896" x="1523.11" y="487.9134">CitizenshipId: int</text><ellipse cx="1514.11" cy="500.6107" fill="none" rx="3" ry="3" style="stroke:#038048;stroke-width:1;"/><text fill="#000000" font-family="sans-serif" font-size="14" lengthAdjust="spacing" textLength="121.4473" x="1523.11" y="504.4017">Nationality: string</text><line style="stroke:#181818;stroke-width:0.5;" x1="1504.11" x2="1649.5573" y1="511.3548" y2="511.3548"/></g><!--class VVNStatus--><g class="entity" data-entity="VVNStatus" data-source-line="56" data-uid="ent0011" id="entity_VVNStatus"><rect fill="#F1F1F1" height="80.9766" rx="2.5" ry="2.5" style="stroke:#181818;stroke-width:0.5;" width="102.2188" x="1800.72" y="48.22"/><ellipse cx="1815.72" cy="64.22" fill="#EB937F" rx="11" ry="11" style="stroke:#181818;stroke-width:1;"/><path d="M1819.8343,70.22 L1812.1145,70.22 L1812.1145,57.8269 L1819.8343,57.8269 L1819.8343,59.9851 L1814.5633,59.9851 L1814.5633,62.658 L1819.3362,62.658 L1819.3362,64.8162 L1814.5633,64.8162 L1814.5633,68.0618 L1819.8343,68.0618 Z " fill="#000000"/><text fill="#000000" font-family="sans-serif" font-size="14" lengthAdjust="spacing" textLength="70.2188" x="1829.72" y="69.511">VVNStatus</text><line style="stroke:#181818;stroke-width:0.5;" x1="1801.72" x2="1901.9388" y1="80.22" y2="80.22"/><text fill="#000000" font-family="sans-serif" font-size="14" lengthAdjust="spacing" textLength="71.3193" x="1806.72" y="97.7552">InProgress</text><text fill="#000000" font-family="sans-serif" font-size="14" lengthAdjust="spacing" textLength="69.2412" x="1806.72" y="114.2434">Submitted</text><line style="stroke:#181818;stroke-width:0.5;" x1="1801.72" x2="1901.9388" y1="121.1966" y2="121.1966"/></g><!--link VesselVisitNotificationsController to VVNRepository--><g class="link" data-entity-1="VesselVisitNotificationsController" data-entity-2="VVNRepository" data-source-line="61" data-uid="lnk12" id="link_VesselVisitNotificationsController_VVNRepository"><path codeLine="61" d="M426.44,129.32 C396.78,165.58 356.9183,214.3353 327.2083,250.6653" fill="none" id="VesselVisitNotificationsController-to-VVNRepository" style="stroke:#181818;stroke-width:1;"/><polygon fill="#181818" points="323.41,255.31,332.2039,250.8752,326.5753,251.4395,326.011,245.8108,323.41,255.31" style="stroke:#181818;stroke-width:1;"/><polygon fill="#000000" points="366.6048,212.9459,374.6058,207.8044,370.0556,204.0834,366.6048,212.9459" style="stroke:#000000;stroke-width:1;"/><text fill="#000000" font-family="sans-serif" font-size="13" lengthAdjust="spacing" textLength="28.5645" x="378.77" y="213.9884">uses</text></g><!--link VesselVisitNotificationsController to CargoManifestRepository--><g class="link" data-entity-1="VesselVisitNotificationsController" data-entity-2="CargoManifestRepository" data-source-line="62" data-uid="lnk13" id="link_VesselVisitNotificationsController_CargoManifestRepository"><path codeLine="62" d="M539.92,129.57 C613.64,165.8 716.4652,216.3336 790.2252,252.5836" fill="none" id="VesselVisitNotificationsController-to-CargoManifestRepository" style="stroke:#181818;stroke-width:1;"/><polygon fill="#181818" points="795.61,255.23,789.297,247.6705,791.1226,253.0246,785.7685,254.8503,795.61,255.23" style="stroke:#181818;stroke-width:1;"/><polygon fill="#000000" points="727.0474,211.2806,720.2259,204.6535,717.6334,209.9287,727.0474,211.2806" style="stroke:#000000;stroke-width:1;"/><text fill="#000000" font-family="sans-serif" font-size="13" lengthAdjust="spacing" textLength="110.5254" x="731.56" y="213.9884">creates manifests</text></g><!--link CargoManifestRepository to CargoItemRepository--><g class="link" data-entity-1="CargoManifestRepository" data-entity-2="CargoItemRepository" data-source-line="63" data-uid="lnk14" id="link_CargoManifestRepository_CargoItemRepository"><path codeLine="63" d="M876.83,336.72 C876.83,364.57 876.83,395.7 876.83,423.64" fill="none" id="CargoManifestRepository-to-CargoItemRepository" style="stroke:#181818;stroke-width:1;"/><polygon fill="#181818" points="876.83,429.64,880.83,420.64,876.83,424.64,872.83,420.64,876.83,429.64" style="stroke:#181818;stroke-width:1;"/><polygon fill="#000000" points="881.83,388.5453,884.7689,379.5002,878.8911,379.5002,881.83,388.5453" style="stroke:#000000;stroke-width:1;"/><text fill="#000000" font-family="sans-serif" font-size="13" lengthAdjust="spacing" textLength="121.2847" x="890.83" y="388.4584">validates ISO codes</text></g><!--link VesselVisitNotification to CargoManifest--><g class="link" data-entity-1="VesselVisitNotification" data-entity-2="CargoManifest" data-source-line="64" data-uid="lnk15" id="link_VesselVisitNotification_CargoManifest"><path codeLine="64" d="M1356.73,170.91 C1343.67,196.7 1332.3597,219.0467 1320.8797,241.7267" fill="none" id="VesselVisitNotification-to-CargoManifest" style="stroke:#181818;stroke-width:1;"/><polygon fill="#181818" points="1318.17,247.08,1325.8034,240.8565,1320.4281,242.6189,1318.6657,237.2436,1318.17,247.08" style="stroke:#181818;stroke-width:1;"/><polygon fill="#000000" points="1342.3417,213.5362,1349.0491,206.7937,1343.8049,204.1389,1342.3417,213.5362" style="stroke:#000000;stroke-width:1;"/><text fill="#000000" font-family="sans-serif" font-size="13" lengthAdjust="spacing" textLength="78.0063" x="1353.6" y="213.9884">composition</text></g><!--link VesselVisitNotification to CrewManifest--><g class="link" data-entity-1="VesselVisitNotification" data-entity-2="CrewManifest" data-source-line="65" data-uid="lnk16" id="link_VesselVisitNotification_CrewManifest"><path codeLine="65" d="M1468.58,170.91 C1496.82,203.32 1523.7287,234.206 1545.2387,258.896" fill="none" id="VesselVisitNotification-to-CrewManifest" style="stroke:#181818;stroke-width:1;"/><polygon fill="#181818" points="1549.18,263.42,1546.284,254.0065,1545.8956,259.65,1540.2521,259.2616,1549.18,263.42" style="stroke:#181818;stroke-width:1;"/><polygon fill="#000000" points="1516.9145,212.8451,1513.1886,204.0948,1508.7569,207.956,1516.9145,212.8451" style="stroke:#000000;stroke-width:1;"/><text fill="#000000" font-family="sans-serif" font-size="13" lengthAdjust="spacing" textLength="51.7778" x="1522.63" y="213.9884">optional</text></g><!--link CrewManifest to CrewMember--><g class="link" data-entity-1="CrewManifest" data-entity-2="CrewMember" data-source-line="66" data-uid="lnk17" id="link_CrewManifest_CrewMember"><path codeLine="66" d="M1576.83,328.79 C1576.83,354.75 1576.83,385.93 1576.83,415.57" fill="none" id="CrewManifest-to-CrewMember" style="stroke:#181818;stroke-width:1;"/><polygon fill="#181818" points="1576.83,421.57,1580.83,412.57,1576.83,416.57,1572.83,412.57,1576.83,421.57" style="stroke:#181818;stroke-width:1;"/><polygon fill="#000000" points="1581.83,388.5453,1584.7689,379.5002,1578.8911,379.5002,1581.83,388.5453" style="stroke:#000000;stroke-width:1;"/><text fill="#000000" font-family="sans-serif" font-size="13" lengthAdjust="spacing" textLength="53.2061" x="1590.83" y="388.4584">contains</text></g><!--SRC=[ZPJDRjim3CVlUGeTLonz0M5mqSKD4A1nYyNrNR7PJ9W-N4bEu0rxzqcMxKXEdIMNM1JvvqyafP8HhL41MWChgAOcauQ-qv8OAeLUIM6KP0mK-hD0zlTrfO0OUDIjABySZo8r4gEYoEp_4YduQ40RK4-SK8QHDegAmvqFVAih6xWpn3JQXvUo0eoeC4iauEHtEZ7_EQ_tTx4eFNQH_O1QMcgfsXb2F7UuEunoedzzim393OXwoZV4pyWdPymLKGUv9OA-szDS1-Qz5uw3Xbo-0X5k2EgtbwXoNOa4qlnbq8ZiKygD0NwTa5eFV7R-b6nDHVMzNLccIxe8moay10mpjHmvXdRuvLF-Y55goNBAOJ2bKzF5OFLQBl-p9DKsBdbe2ZpV1BlqZOrZhKw1Mx1wc9c8-7I-Ia7clAsXp-S-WnrNFNkmPwhDkPoVTVHA1dl12HMWDhiNZ2hPx5cV8GLTAbgxyiSXQoLvRCdbk3xd3WuUZD5f2tmFQgGUBSaaj3CEWUk6iOpmAJirz3S8_PFMcoeOYwoR6SAeQKCk40q_3q4llH6lIXwK7RjkkMlsd1e3bGkuuL6ylqycZn16ZGQDabkZvzu6ZChkqcaqF0bETCvxL9hSNuoEjWvLfsCxZDn5l09tIUGu9E_qtFv_8iEUOoHhtmV77UwChhx7BaCtX1Ri7m00]--></g></svg>