<svg xmlns="http://www.w3.org/2000/svg" xmlns:xlink="http://www.w3.org/1999/xlink" contentStyleType="text/css" data-diagram-type="CLASS" height="476px" preserveAspectRatio="none" style="width:1697px;height:476px;background:#FFFFFF;" version="1.1" viewBox="0 0 1697 476" width="1697px" zoomAndPan="magnify"><defs/><g><!--class VesselVisitNotificationsController--><g class="entity" data-entity="VesselVisitNotificationsController" data-source-line="2" data-uid="ent0002" id="entity_VesselVisitNotificationsController"><rect fill="#F1F1F1" height="97.4648" rx="2.5" ry="2.5" style="stroke:#181818;stroke-width:0.5;" width="495.7861" x="705.7" y="15.24"/><ellipse cx="835.9007" cy="31.24" fill="#ADD1B2" rx="11" ry="11" style="stroke:#181818;stroke-width:1;"/><path d="M838.8738,36.8831 Q838.2928,37.1819 837.6536,37.3313 Q837.0145,37.4807 836.3089,37.4807 Q833.8021,37.4807 832.4822,35.8289 Q831.1624,34.177 831.1624,31.0559 Q831.1624,27.9265 832.4822,26.2747 Q833.8021,24.6228 836.3089,24.6228 Q837.0145,24.6228 837.6619,24.7722 Q838.3094,24.9216 838.8738,25.2205 L838.8738,27.9431 Q838.243,27.3621 837.6495,27.0923 Q837.056,26.8225 836.4251,26.8225 Q835.0804,26.8225 834.3956,27.8892 Q833.7107,28.9558 833.7107,31.0559 Q833.7107,33.1477 834.3956,34.2144 Q835.0804,35.281 836.4251,35.281 Q837.056,35.281 837.6495,35.0112 Q838.243,34.7415 838.8738,34.1604 Z " fill="#000000"/><text fill="#000000" font-family="sans-serif" font-size="14" lengthAdjust="spacing" textLength="226.8848" x="856.4007" y="36.531">VesselVisitNotificationsController</text><line style="stroke:#181818;stroke-width:0.5;" x1="706.7" x2="1200.4861" y1="47.24" y2="47.24"/><line style="stroke:#181818;stroke-width:0.5;" x1="706.7" x2="1200.4861" y1="55.24" y2="55.24"/><ellipse cx="716.7" cy="68.9841" fill="#84BE84" rx="3" ry="3" style="stroke:#038048;stroke-width:1;"/><text fill="#000000" font-family="sans-serif" font-size="14" lengthAdjust="spacing" textLength="312.1221" x="725.7" y="72.7752">ApproveVVN(code: int, requesterEmail: string)</text><ellipse cx="716.7" cy="85.4724" fill="#84BE84" rx="3" ry="3" style="stroke:#038048;stroke-width:1;"/><text fill="#000000" font-family="sans-serif" font-size="14" lengthAdjust="spacing" textLength="469.7861" x="725.7" y="89.2634">RejectVVN(code: int, feedback: FeedbackDTO, requesterEmail: string)</text><ellipse cx="716.7" cy="101.9607" fill="#84BE84" rx="3" ry="3" style="stroke:#038048;stroke-width:1;"/><text fill="#000000" font-family="sans-serif" font-size="14" lengthAdjust="spacing" textLength="326.7852" x="725.7" y="105.7517">InProgressVVN(code: int, requesterEmail: string)</text></g><!--class VVNRepository--><g class="entity" data-entity="VVNRepository" data-source-line="8" data-uid="ent0003" id="entity_VVNRepository"><rect fill="#F1F1F1" height="80.9766" rx="2.5" ry="2.5" style="stroke:#181818;stroke-width:0.5;" width="541.1768" x="7" y="197.95"/><ellipse cx="222.9507" cy="213.95" fill="#ADD1B2" rx="11" ry="11" style="stroke:#181818;stroke-width:1;"/><path d="M225.9238,219.5931 Q225.3428,219.8919 224.7036,220.0413 Q224.0645,220.1907 223.3589,220.1907 Q220.8521,220.1907 219.5322,218.5389 Q218.2124,216.887 218.2124,213.7659 Q218.2124,210.6365 219.5322,208.9847 Q220.8521,207.3328 223.3589,207.3328 Q224.0645,207.3328 224.7119,207.4822 Q225.3594,207.6316 225.9238,207.9305 L225.9238,210.6531 Q225.293,210.0721 224.6995,209.8023 Q224.106,209.5325 223.4751,209.5325 Q222.1304,209.5325 221.4456,210.5992 Q220.7607,211.6658 220.7607,213.7659 Q220.7607,215.8577 221.4456,216.9244 Q222.1304,217.991 223.4751,217.991 Q224.106,217.991 224.6995,217.7212 Q225.293,217.4515 225.9238,216.8704 Z " fill="#000000"/><text fill="#000000" font-family="sans-serif" font-size="14" lengthAdjust="spacing" textLength="100.7754" x="243.4507" y="219.241">VVNRepository</text><line style="stroke:#181818;stroke-width:0.5;" x1="8" x2="547.1768" y1="229.95" y2="229.95"/><line style="stroke:#181818;stroke-width:0.5;" x1="8" x2="547.1768" y1="237.95" y2="237.95"/><ellipse cx="18" cy="251.6941" fill="#84BE84" rx="3" ry="3" style="stroke:#038048;stroke-width:1;"/><text fill="#000000" font-family="sans-serif" font-size="14" lengthAdjust="spacing" textLength="342.1523" x="27" y="255.4852">GetByCodeAsync(code: int): VesselVisitNotification</text><ellipse cx="18" cy="268.1824" fill="#84BE84" rx="3" ry="3" style="stroke:#038048;stroke-width:1;"/><text fill="#000000" font-family="sans-serif" font-size="14" lengthAdjust="spacing" textLength="515.1768" x="27" y="271.9734">UpdateStatusAsync(code: int, newStatus: VVNStatus): VesselVisitNotification</text></g><!--class FeedbackRepository--><g class="entity" data-entity="FeedbackRepository" data-source-line="13" data-uid="ent0004" id="entity_FeedbackRepository"><rect fill="#F1F1F1" height="64.4883" rx="2.5" ry="2.5" style="stroke:#181818;stroke-width:0.5;" width="347.8701" x="583.65" y="206.19"/><ellipse cx="685.3653" cy="222.19" fill="#ADD1B2" rx="11" ry="11" style="stroke:#181818;stroke-width:1;"/><path d="M688.3385,227.8331 Q687.7574,228.1319 687.1183,228.2813 Q686.4791,228.4307 685.7735,228.4307 Q683.2667,228.4307 681.9469,226.7789 Q680.6271,225.127 680.6271,222.0059 Q680.6271,218.8765 681.9469,217.2247 Q683.2667,215.5728 685.7735,215.5728 Q686.4791,215.5728 687.1266,215.7222 Q687.774,215.8716 688.3385,216.1705 L688.3385,218.8931 Q687.7076,218.3121 687.1141,218.0423 Q686.5206,217.7725 685.8897,217.7725 Q684.545,217.7725 683.8602,218.8392 Q683.1754,219.9058 683.1754,222.0059 Q683.1754,224.0977 683.8602,225.1644 Q684.545,226.231 685.8897,226.231 Q686.5206,226.231 687.1141,225.9612 Q687.7076,225.6915 688.3385,225.1104 Z " fill="#000000"/><text fill="#000000" font-family="sans-serif" font-size="14" lengthAdjust="spacing" textLength="135.9395" x="705.8653" y="227.481">FeedbackRepository</text><line style="stroke:#181818;stroke-width:0.5;" x1="584.65" x2="930.5201" y1="238.19" y2="238.19"/><line style="stroke:#181818;stroke-width:0.5;" x1="584.65" x2="930.5201" y1="246.19" y2="246.19"/><ellipse cx="594.65" cy="259.9341" fill="#84BE84" rx="3" ry="3" style="stroke:#038048;stroke-width:1;"/><text fill="#000000" font-family="sans-serif" font-size="14" lengthAdjust="spacing" textLength="321.8701" x="603.65" y="263.7252">CreateAsync(feedback: Feedback): Task&lt;Guid&gt;</text></g><!--class DockAvailabilityService--><g class="entity" data-entity="DockAvailabilityService" data-source-line="17" data-uid="ent0005" id="entity_DockAvailabilityService"><rect fill="#F1F1F1" height="64.4883" rx="2.5" ry="2.5" style="stroke:#181818;stroke-width:0.5;" width="365.3564" x="966.91" y="206.19"/><ellipse cx="1067.4701" cy="222.19" fill="#ADD1B2" rx="11" ry="11" style="stroke:#181818;stroke-width:1;"/><path d="M1070.4432,227.8331 Q1069.8621,228.1319 1069.223,228.2813 Q1068.5838,228.4307 1067.8783,228.4307 Q1065.3714,228.4307 1064.0516,226.7789 Q1062.7318,225.127 1062.7318,222.0059 Q1062.7318,218.8765 1064.0516,217.2247 Q1065.3714,215.5728 1067.8783,215.5728 Q1068.5838,215.5728 1069.2313,215.7222 Q1069.8787,215.8716 1070.4432,216.1705 L1070.4432,218.8931 Q1069.8123,218.3121 1069.2188,218.0423 Q1068.6253,217.7725 1067.9945,217.7725 Q1066.6497,217.7725 1065.9649,218.8392 Q1065.2801,219.9058 1065.2801,222.0059 Q1065.2801,224.0977 1065.9649,225.1644 Q1066.6497,226.231 1067.9945,226.231 Q1068.6253,226.231 1069.2188,225.9612 Q1069.8123,225.6915 1070.4432,225.1104 Z " fill="#000000"/><text fill="#000000" font-family="sans-serif" font-size="14" lengthAdjust="spacing" textLength="155.7363" x="1087.9701" y="227.481">DockAvailabilityService</text><line style="stroke:#181818;stroke-width:0.5;" x1="967.91" x2="1331.2664" y1="238.19" y2="238.19"/><line style="stroke:#181818;stroke-width:0.5;" x1="967.91" x2="1331.2664" y1="246.19" y2="246.19"/><ellipse cx="977.91" cy="259.9341" fill="#84BE84" rx="3" ry="3" style="stroke:#038048;stroke-width:1;"/><text fill="#000000" font-family="sans-serif" font-size="14" lengthAdjust="spacing" textLength="339.3564" x="986.91" y="263.7252">FindAvailableDockAsync(vesselType: string): Dock</text></g><!--class DockRecordRepository--><g class="entity" data-entity="DockRecordRepository" data-source-line="21" data-uid="ent0006" id="entity_DockRecordRepository"><rect fill="#F1F1F1" height="64.4883" rx="2.5" ry="2.5" style="stroke:#181818;stroke-width:0.5;" width="347.8428" x="975.67" y="380.66"/><ellipse cx="1068.5772" cy="396.66" fill="#ADD1B2" rx="11" ry="11" style="stroke:#181818;stroke-width:1;"/><path d="M1071.5504,402.3031 Q1070.9693,402.6019 1070.3302,402.7513 Q1069.691,402.9007 1068.9854,402.9007 Q1066.4786,402.9007 1065.1588,401.2489 Q1063.8389,399.597 1063.8389,396.4759 Q1063.8389,393.3465 1065.1588,391.6947 Q1066.4786,390.0428 1068.9854,390.0428 Q1069.691,390.0428 1070.3385,390.1922 Q1070.9859,390.3416 1071.5504,390.6405 L1071.5504,393.3631 Q1070.9195,392.7821 1070.326,392.5123 Q1069.7325,392.2425 1069.1016,392.2425 Q1067.7569,392.2425 1067.0721,393.3092 Q1066.3873,394.3758 1066.3873,396.4759 Q1066.3873,398.5677 1067.0721,399.6344 Q1067.7569,400.701 1069.1016,400.701 Q1069.7325,400.701 1070.326,400.4312 Q1070.9195,400.1615 1071.5504,399.5804 Z " fill="#000000"/><text fill="#000000" font-family="sans-serif" font-size="14" lengthAdjust="spacing" textLength="153.5283" x="1089.0772" y="401.951">DockRecordRepository</text><line style="stroke:#181818;stroke-width:0.5;" x1="976.67" x2="1322.5128" y1="412.66" y2="412.66"/><line style="stroke:#181818;stroke-width:0.5;" x1="976.67" x2="1322.5128" y1="420.66" y2="420.66"/><ellipse cx="986.67" cy="434.4041" fill="#84BE84" rx="3" ry="3" style="stroke:#038048;stroke-width:1;"/><text fill="#000000" font-family="sans-serif" font-size="14" lengthAdjust="spacing" textLength="321.8428" x="995.67" y="438.1952">CreateAsync(record: DockRecord): Task&lt;Guid&gt;</text></g><!--class VesselVisitRepository--><g class="entity" data-entity="VesselVisitRepository" data-source-line="25" data-uid="ent0007" id="entity_VesselVisitRepository"><rect fill="#F1F1F1" height="64.4883" rx="2.5" ry="2.5" style="stroke:#181818;stroke-width:0.5;" width="323.0078" x="1367.08" y="206.19"/><ellipse cx="1451.9242" cy="222.19" fill="#ADD1B2" rx="11" ry="11" style="stroke:#181818;stroke-width:1;"/><path d="M1454.8974,227.8331 Q1454.3163,228.1319 1453.6772,228.2813 Q1453.038,228.4307 1452.3324,228.4307 Q1449.8256,228.4307 1448.5058,226.7789 Q1447.186,225.127 1447.186,222.0059 Q1447.186,218.8765 1448.5058,217.2247 Q1449.8256,215.5728 1452.3324,215.5728 Q1453.038,215.5728 1453.6855,215.7222 Q1454.3329,215.8716 1454.8974,216.1705 L1454.8974,218.8931 Q1454.2665,218.3121 1453.673,218.0423 Q1453.0795,217.7725 1452.4487,217.7725 Q1451.1039,217.7725 1450.4191,218.8392 Q1449.7343,219.9058 1449.7343,222.0059 Q1449.7343,224.0977 1450.4191,225.1644 Q1451.1039,226.231 1452.4487,226.231 Q1453.0795,226.231 1453.673,225.9612 Q1454.2665,225.6915 1454.8974,225.1104 Z " fill="#000000"/><text fill="#000000" font-family="sans-serif" font-size="14" lengthAdjust="spacing" textLength="144.8193" x="1472.4242" y="227.481">VesselVisitRepository</text><line style="stroke:#181818;stroke-width:0.5;" x1="1368.08" x2="1689.0878" y1="238.19" y2="238.19"/><line style="stroke:#181818;stroke-width:0.5;" x1="1368.08" x2="1689.0878" y1="246.19" y2="246.19"/><ellipse cx="1378.08" cy="259.9341" fill="#84BE84" rx="3" ry="3" style="stroke:#038048;stroke-width:1;"/><text fill="#000000" font-family="sans-serif" font-size="14" lengthAdjust="spacing" textLength="297.0078" x="1387.08" y="263.7252">CreateAsync(visit: VesselVisit): Task&lt;Guid&gt;</text></g><!--class VesselVisitNotification--><g class="entity" data-entity="VesselVisitNotification" data-source-line="29" data-uid="ent0008" id="entity_VesselVisitNotification"><rect fill="#F1F1F1" height="113.9531" rx="2.5" ry="2.5" style="stroke:#181818;stroke-width:0.5;" width="183.5869" x="185.79" y="355.93"/><ellipse cx="200.79" cy="371.93" fill="#ADD1B2" rx="11" ry="11" style="stroke:#181818;stroke-width:1;"/><path d="M203.7631,377.5731 Q203.1821,377.8719 202.5429,378.0213 Q201.9038,378.1707 201.1982,378.1707 Q198.6914,378.1707 197.3715,376.5189 Q196.0517,374.867 196.0517,371.7459 Q196.0517,368.6165 197.3715,366.9647 Q198.6914,365.3128 201.1982,365.3128 Q201.9038,365.3128 202.5512,365.4622 Q203.1987,365.6116 203.7631,365.9105 L203.7631,368.6331 Q203.1323,368.0521 202.5388,367.7823 Q201.9453,367.5125 201.3144,367.5125 Q199.9697,367.5125 199.2849,368.5792 Q198.6001,369.6458 198.6001,371.7459 Q198.6001,373.8377 199.2849,374.9044 Q199.9697,375.971 201.3144,375.971 Q201.9453,375.971 202.5388,375.7012 Q203.1323,375.4315 203.7631,374.8504 Z " fill="#000000"/><text fill="#000000" font-family="sans-serif" font-size="14" lengthAdjust="spacing" textLength="151.5869" x="214.79" y="377.221">VesselVisitNotification</text><line style="stroke:#181818;stroke-width:0.5;" x1="186.79" x2="368.3769" y1="387.93" y2="387.93"/><ellipse cx="196.79" cy="401.6741" fill="none" rx="3" ry="3" style="stroke:#038048;stroke-width:1;"/><text fill="#000000" font-family="sans-serif" font-size="14" lengthAdjust="spacing" textLength="61.7285" x="205.79" y="405.4652">Code: int</text><ellipse cx="196.79" cy="418.1624" fill="none" rx="3" ry="3" style="stroke:#038048;stroke-width:1;"/><text fill="#000000" font-family="sans-serif" font-size="14" lengthAdjust="spacing" textLength="120.6475" x="205.79" y="421.9534">Status: VVNStatus</text><ellipse cx="196.79" cy="434.6507" fill="none" rx="3" ry="3" style="stroke:#038048;stroke-width:1;"/><text fill="#000000" font-family="sans-serif" font-size="14" lengthAdjust="spacing" textLength="130.4434" x="205.79" y="438.4417">VesselName: string</text><ellipse cx="196.79" cy="451.139" fill="none" rx="3" ry="3" style="stroke:#038048;stroke-width:1;"/><text fill="#000000" font-family="sans-serif" font-size="14" lengthAdjust="spacing" textLength="99.9824" x="205.79" y="454.93">ETA: DateTime</text><line style="stroke:#181818;stroke-width:0.5;" x1="186.79" x2="368.3769" y1="461.8831" y2="461.8831"/></g><!--class VVNStatus--><g class="entity" data-entity="VVNStatus" data-source-line="36" data-uid="ent0009" id="entity_VVNStatus"><rect fill="#F1F1F1" height="113.9531" rx="2.5" ry="2.5" style="stroke:#181818;stroke-width:0.5;" width="102.2188" x="1236.48" y="7"/><ellipse cx="1251.48" cy="23" fill="#EB937F" rx="11" ry="11" style="stroke:#181818;stroke-width:1;"/><path d="M1255.5943,29 L1247.8745,29 L1247.8745,16.6069 L1255.5943,16.6069 L1255.5943,18.7651 L1250.3233,18.7651 L1250.3233,21.438 L1255.0962,21.438 L1255.0962,23.5962 L1250.3233,23.5962 L1250.3233,26.8418 L1255.5943,26.8418 Z " fill="#000000"/><text fill="#000000" font-family="sans-serif" font-size="14" lengthAdjust="spacing" textLength="70.2188" x="1265.48" y="28.291">VVNStatus</text><line style="stroke:#181818;stroke-width:0.5;" x1="1237.48" x2="1337.6988" y1="39" y2="39"/><text fill="#000000" font-family="sans-serif" font-size="14" lengthAdjust="spacing" textLength="54.5029" x="1242.48" y="56.5352">Pending</text><text fill="#000000" font-family="sans-serif" font-size="14" lengthAdjust="spacing" textLength="71.3193" x="1242.48" y="73.0234">InProgress</text><text fill="#000000" font-family="sans-serif" font-size="14" lengthAdjust="spacing" textLength="65.4678" x="1242.48" y="89.5117">Approved</text><text fill="#000000" font-family="sans-serif" font-size="14" lengthAdjust="spacing" textLength="57.7295" x="1242.48" y="106">Rejected</text><line style="stroke:#181818;stroke-width:0.5;" x1="1237.48" x2="1337.6988" y1="112.9531" y2="112.9531"/></g><!--link VesselVisitNotificationsController to VVNRepository--><g class="link" data-entity-1="VesselVisitNotificationsController" data-entity-2="VVNRepository" data-source-line="43" data-uid="lnk10" id="link_VesselVisitNotificationsController_VVNRepository"><path codeLine="43" d="M764.84,113.13 C660.63,139.71 538.5637,170.8565 439.9637,196.0165" fill="none" id="VesselVisitNotificationsController-to-VVNRepository" style="stroke:#181818;stroke-width:1;"/><polygon fill="#181818" points="434.15,197.5,443.8596,199.1506,438.9948,196.2638,441.8816,191.3989,434.15,197.5" style="stroke:#181818;stroke-width:1;"/><polygon fill="#000000" points="615.7452,160.8413,625.2361,161.453,623.783,155.7576,615.7452,160.8413" style="stroke:#000000;stroke-width:1;"/><text fill="#000000" font-family="sans-serif" font-size="13" lengthAdjust="spacing" textLength="28.5645" x="629.59" y="164.5184">uses</text></g><!--link VesselVisitNotificationsController to FeedbackRepository--><g class="link" data-entity-1="VesselVisitNotificationsController" data-entity-2="FeedbackRepository" data-source-line="44" data-uid="lnk11" id="link_VesselVisitNotificationsController_FeedbackRepository"><path codeLine="44" d="M898.99,113.01 C865.35,142.62 827.6649,175.777 798.1549,201.737" fill="none" id="VesselVisitNotificationsController-to-FeedbackRepository" style="stroke:#181818;stroke-width:1;"/><polygon fill="#181818" points="793.65,205.7,803.0494,202.7588,797.4041,202.3975,797.7654,196.7522,793.65,205.7" style="stroke:#181818;stroke-width:1;"/><polygon fill="#000000" points="856.8363,162.9082,865.5683,159.1395,861.6854,154.7267,856.8363,162.9082" style="stroke:#000000;stroke-width:1;"/><text fill="#000000" font-family="sans-serif" font-size="13" lengthAdjust="spacing" textLength="26.4761" x="869.59" y="164.5184">logs</text></g><!--link VesselVisitNotificationsController to DockAvailabilityService--><g class="link" data-entity-1="VesselVisitNotificationsController" data-entity-2="DockAvailabilityService" data-source-line="45" data-uid="lnk12" id="link_VesselVisitNotificationsController_DockAvailabilityService"><path codeLine="45" d="M1008.19,113.01 C1041.83,142.62 1079.5157,175.7762 1109.0157,201.7362" fill="none" id="VesselVisitNotificationsController-to-DockAvailabilityService" style="stroke:#181818;stroke-width:1;"/><polygon fill="#181818" points="1113.52,205.7,1109.4061,196.7515,1109.7664,202.3969,1104.1211,202.7572,1113.52,205.7" style="stroke:#181818;stroke-width:1;"/><polygon fill="#000000" points="1077.8936,162.9084,1073.0448,154.7267,1069.1618,159.1393,1077.8936,162.9084" style="stroke:#000000;stroke-width:1;"/><text fill="#000000" font-family="sans-serif" font-size="13" lengthAdjust="spacing" textLength="88.7085" x="1083.14" y="164.5184">requests dock</text></g><!--link DockAvailabilityService to DockRecordRepository--><g class="link" data-entity-1="DockAvailabilityService" data-entity-2="DockRecordRepository" data-source-line="46" data-uid="lnk13" id="link_DockAvailabilityService_DockRecordRepository"><path codeLine="46" d="M1149.59,271.07 C1149.59,302.09 1149.59,343.13 1149.59,374.18" fill="none" id="DockAvailabilityService-to-DockRecordRepository" style="stroke:#181818;stroke-width:1;"/><polygon fill="#181818" points="1149.59,380.18,1153.59,371.18,1149.59,375.18,1145.59,371.18,1149.59,380.18" style="stroke:#181818;stroke-width:1;"/><polygon fill="#000000" points="1154.59,322.5853,1157.5289,313.5402,1151.6511,313.5402,1154.59,322.5853" style="stroke:#000000;stroke-width:1;"/><text fill="#000000" font-family="sans-serif" font-size="13" lengthAdjust="spacing" textLength="89.9526" x="1163.59" y="322.4984">creates record</text></g><!--link VesselVisitNotificationsController to VesselVisitRepository--><g class="link" data-entity-1="VesselVisitNotificationsController" data-entity-2="VesselVisitRepository" data-source-line="47" data-uid="lnk14" id="link_VesselVisitNotificationsController_VesselVisitRepository"><path codeLine="47" d="M1114.14,113.13 C1212.82,142.73 1330.733,178.0962 1417.183,204.0262" fill="none" id="VesselVisitNotificationsController-to-VesselVisitRepository" style="stroke:#181818;stroke-width:1;"/><polygon fill="#181818" points="1422.93,205.75,1415.4586,199.333,1418.1408,204.3135,1413.1602,206.9957,1422.93,205.75" style="stroke:#181818;stroke-width:1;"/><polygon fill="#000000" points="1302.3792,161.0418,1294.5598,155.6281,1292.8711,161.2581,1302.3792,161.0418" style="stroke:#000000;stroke-width:1;"/><text fill="#000000" font-family="sans-serif" font-size="13" lengthAdjust="spacing" textLength="92.3203" x="1306.59" y="164.5184">schedules visit</text></g><!--link VVNRepository to VesselVisitNotification--><g class="link" data-entity-1="VVNRepository" data-entity-2="VesselVisitNotification" data-source-line="48" data-uid="lnk15" id="link_VVNRepository_VesselVisitNotification"><path codeLine="48" d="M277.59,279.01 C277.59,301.68 277.59,324.51 277.59,349.53" fill="none" id="VVNRepository-to-VesselVisitNotification" style="stroke:#181818;stroke-width:1;"/><polygon fill="#181818" points="277.59,355.53,281.59,346.53,277.59,350.53,273.59,346.53,277.59,355.53" style="stroke:#181818;stroke-width:1;"/><polygon fill="#000000" points="282.59,322.5853,285.5289,313.5402,279.6511,313.5402,282.59,322.5853" style="stroke:#000000;stroke-width:1;"/><text fill="#000000" font-family="sans-serif" font-size="13" lengthAdjust="spacing" textLength="96.2368" x="291.59" y="322.4984">manages entity</text></g><!--SRC=[bPFBRiCW44Nt-GgMZPh-0AeYfNcfcpHANEy9J58Q32vWLrRLV-y4OkVzg5V6ddjck5ouOiwH59m3bKed_SHukPISUMcqwnljhL4ABFbf4NmUUtbkJGbfEddWHW0bKliEiV1LWFDWXncJYXBdhTIhTfJCu1EuFr8i0SI2yJKbe-tR87cx0NhLKsjM5cUzi_rlgyNZ_jB937A3spEsghSo1lzIzP7ISvNcErwRNl8ZwjvpmJpCFVE5Ev9sY8Rl-8TkciRNAy1cmjg5qp7x5h1TR7Jg6h8JvjRFuqAAxWutC7pTAz4Cjf1A-ceEjfGSQkP8Qh7zhI3K1dmPfaog71eFQK0TWcV0ZHNN9xMXXkxLNvXqpvdhn79JSk3aRUA-rmspFgouF3cj-3b29Ynhh8ZVXqaFDuL39JA3JK_GHROJRvjCGOjQiajjM6ula0YBU3LmWQ0xxk3JK_SeofGK3Xpftgi-4pDAb5dz0t4fMhI-Xeu8B47WfSgQSf8ZIdWuS4TYVEuVwdoAyEZu1uX28J74PmCyyEz8Uv0NIZAcsGgre3sEZ-8_]--></g></svg>