<?xml version="1.0" encoding="UTF-8"?>
<svg version="1.1" xmlns="http://www.w3.org/2000/svg" width="500" height="500">
<path d="M0 0 C165 0 330 0 500 0 C500 165 500 330 500 500 C335 500 170 500 0 500 C0 335 0 170 0 0 Z " fill="#FCFDFE" transform="translate(0,0)"/>
<path d="M0 0 C2.08889627 2.08889627 2.53936914 3.13172962 3.4453125 5.8671875 C3.71359863 6.66036377 3.98188477 7.45354004 4.25830078 8.27075195 C4.54431152 9.13015381 4.83032227 9.98955566 5.125 10.875 C7.58810212 18.11290226 10.23213257 25.23556348 13.125 32.3125 C15.37369828 37.82948939 17.50183881 43.31962249 19.3125 49 C22.08372727 57.61428952 25.49780047 65.96603032 28.83984375 74.37182617 C31.96795547 82.27506384 34.89902791 90.21467152 37.64794922 98.2565918 C39.72358978 104.30250559 42.05813385 110.19516882 44.4765625 116.11328125 C46.26484636 120.58399091 47.81289471 125.1339149 49.375 129.6875 C52.05828514 137.50438454 55.02614676 145.1656945 58.14648438 152.81738281 C60.69533876 159.11440518 62.92477856 165.46390493 64.9921875 171.93359375 C66.31890195 176.03775369 66.31890195 176.03775369 68 180 C70.54775306 180.89386164 70.54775306 180.89386164 73 181 C73.16616821 179.75416138 73.16616821 179.75416138 73.33569336 178.4831543 C74.07786726 174.59171913 75.27855928 170.98017542 76.62890625 167.26953125 C76.89345108 166.53176956 77.15799591 165.79400787 77.43055725 165.03388977 C80.20679962 157.33667301 83.11480403 149.68919852 86.03637695 142.04623413 C90.71379725 129.80285523 95.30228571 117.54558391 99.55859375 105.1484375 C101.20654321 100.3594674 102.99081311 95.62514154 104.79394531 90.89282227 C106.12721022 87.3788707 107.40952882 83.85332577 108.63671875 80.30078125 C108.90669678 79.52049561 109.1766748 78.74020996 109.45483398 77.9362793 C109.97381207 76.42778513 110.4878785 74.91758965 110.99633789 73.40551758 C112.78110983 68.21889017 112.78110983 68.21889017 115 66 C118.59458509 73.2223 121.31686278 80.62404199 123.91137695 88.24267578 C127.2654103 97.974798 131.04368404 107.53983608 134.82446289 117.11230469 C137.27040916 123.33302036 139.55976184 129.52613409 141.39550781 135.95654297 C142.16542092 138.55919754 143.16106255 141.01538216 144.25 143.5 C149.355484 155.46935222 154.08158358 167.58762499 158 180 C159.65 180.33 161.3 180.66 163 181 C163.10957031 180.43152344 163.21914063 179.86304688 163.33203125 179.27734375 C164.22273684 174.93967994 165.29992391 171.08417422 167.16088867 167.04370117 C168.23498103 164.42769096 169.00228501 161.76358633 169.80078125 159.05078125 C171.8301786 152.37811533 174.25089898 145.92104152 176.8125 139.4375 C179.81947595 131.72886671 182.7584748 124.0164164 185.4375 116.1875 C188.28091321 107.88927052 191.36597676 99.69239361 194.5 91.5 C197.97422636 82.41750915 201.34464892 73.31601169 204.50561523 64.11987305 C206.87937353 57.24899161 209.45889841 50.46519932 212.07739258 43.68432617 C214.56399826 37.22207467 216.9011125 30.71823396 219.09790039 24.15161133 C220.78610898 19.21389102 220.78610898 19.21389102 223 17 C223 69.8 223 122.6 223 177 C232.24 177 241.48 177 251 177 C251 149.61 251 122.22 251 94 C263.54 94 276.08 94 289 94 C289 93.34 289 92.68 289 92 C289.58265625 91.92072266 290.1653125 91.84144531 290.765625 91.75976562 C307.34929911 89.39998181 320.60391763 85.17699875 334 75 C334.33 74.34 334.66 73.68 335 73 C335.66 73 336.32 73 337 73 C337.06843895 101.81630923 337.12152962 130.63260887 337.15319599 159.44898338 C337.1569481 162.8510802 337.16083107 166.25317686 337.16479492 169.65527344 C337.16558185 170.33256913 337.16636878 171.00986482 337.16717956 171.70768462 C337.1802332 182.67411842 337.20388681 193.64050503 337.23145839 204.60691084 C337.25951377 215.85959891 337.27595198 227.11226341 337.28226548 238.36498821 C337.28618014 244.68542095 337.29539563 251.00574669 337.31719017 257.32614517 C337.3375326 263.27354545 337.34383828 269.22079448 337.33932304 275.16822624 C337.34014924 277.35234206 337.34612813 279.53646287 337.35761642 281.72054863 C337.37252519 284.70077718 337.36895927 287.68043346 337.36076355 290.66067505 C337.36950207 291.52644326 337.3782406 292.39221148 337.38724393 293.28421509 C337.34402806 299.09160464 336.37523726 303.36585063 332.3515625 307.828125 C331.78179687 308.29734375 331.21203125 308.7665625 330.625 309.25 C329.77808594 309.96929687 329.77808594 309.96929687 328.9140625 310.703125 C324.50320074 313.69170889 320.65022365 314.25090144 315.3788023 314.25726891 C314.72371761 314.26077498 314.06863292 314.26428105 313.39369717 314.26789337 C311.19521608 314.27720867 308.99699981 314.27228381 306.79850769 314.26742554 C305.20771882 314.27116174 303.61693178 314.27576314 302.02614766 314.28115618 C297.65186081 314.29340536 293.27765033 314.29312346 288.90335023 314.29076743 C284.18680093 314.29035975 279.47027626 314.30139376 274.7537384 314.31088257 C265.51203198 314.32750403 256.27035106 314.33299263 247.02863093 314.33410732 C239.5173727 314.33505725 232.00612289 314.33916478 224.49486732 314.34550858 C203.20464313 314.36312408 181.91443911 314.37234696 160.62420758 314.37084763 C158.90213034 314.37072776 158.90213034 314.37072776 157.14526367 314.37060547 C155.99581236 314.37052371 154.84636105 314.37044195 153.66207788 314.37035771 C135.0312363 314.36954471 116.40047554 314.38868504 97.76965734 314.4168822 C78.64512478 314.44559847 59.52063165 314.45942319 40.39607698 314.45769465 C29.65689673 314.45703032 18.91780121 314.46254163 8.17864037 314.48405075 C-0.96464218 314.50224599 -10.10780158 314.50662351 -19.25109438 314.4930319 C-23.9163953 314.4864939 -28.58145987 314.48641506 -33.24673843 314.5037384 C-37.51849541 314.51943741 -41.789828 314.51663809 -46.06157442 314.49917014 C-47.6059735 314.49609323 -49.150404 314.49975863 -50.69476602 314.51089029 C-59.75796329 314.57188464 -66.9903176 314.49306559 -74.07315063 308.14064026 C-78.84638848 301.26787978 -78.78248673 294.951203 -78.5859375 286.77734375 C-78.57472331 285.42259109 -78.56619364 284.06781382 -78.56021118 282.71302795 C-78.53748593 279.17622694 -78.47871199 275.6409443 -78.4119873 272.10473633 C-78.35020647 268.48474663 -78.32312061 264.86450747 -78.29296875 261.24414062 C-78.22894629 254.16214559 -78.12677206 247.0811728 -78 240 C-77.10223091 239.96830719 -77.10223091 239.96830719 -76.18632507 239.93597412 C-73.44028258 239.83471033 -70.69481267 239.72212477 -67.94921875 239.609375 C-67.00784058 239.57634277 -66.0664624 239.54331055 -65.09655762 239.50927734 C-47.1594457 238.7431684 -32.45374228 230.80936714 -20 218.125 C-4.420916 200.52865552 -0.70970297 179.43221267 -0.68115234 156.66503906 C-0.67183582 154.94900042 -0.66166464 153.23296623 -0.65071106 151.51693726 C-0.62359116 146.89383777 -0.60831554 142.27076844 -0.59528303 137.64761066 C-0.57957303 132.80294174 -0.5528082 127.95833369 -0.5272522 123.1137085 C-0.480603 113.95556204 -0.44379212 104.79740394 -0.41057932 95.63919997 C-0.3722596 85.20619243 -0.32287546 74.77324624 -0.27259517 64.34029055 C-0.16948161 42.89357243 -0.08015476 21.44681541 0 0 Z " fill="#FDFDFE" transform="translate(121,139)"/>
<path d="M0 0 C0.65760719 -0.00205263 1.31521438 -0.00410527 1.99274907 -0.0062201 C4.20575701 -0.01189385 6.41870278 -0.0104324 8.63171673 -0.00901413 C10.23060337 -0.01159754 11.82948937 -0.01461064 13.42837447 -0.01801753 C17.82963665 -0.02609344 22.23088253 -0.02787743 26.63215125 -0.028615 C31.37595821 -0.0304645 36.1197567 -0.03801128 40.86355877 -0.04475021 C51.2394929 -0.05833782 61.61542317 -0.0643588 71.99136472 -0.06876087 C78.46803733 -0.07152233 84.94470844 -0.07575948 91.42138004 -0.08026505 C109.3477246 -0.0924578 127.27406795 -0.10275741 145.20041656 -0.10614014 C146.34794831 -0.1063597 147.49548006 -0.10657927 148.6777855 -0.10680549 C149.8280847 -0.10702377 150.97838391 -0.10724204 152.16354066 -0.10746694 C154.49454137 -0.1079104 156.82554207 -0.10835697 159.15654278 -0.10880661 C160.31280313 -0.10902804 161.46906348 -0.10924947 162.66036203 -0.10947761 C181.40185692 -0.11342682 200.14331296 -0.13088457 218.88479284 -0.15416613 C238.1188959 -0.17786714 257.35297945 -0.1903414 276.58709735 -0.19150805 C287.38940464 -0.19242547 298.1916613 -0.19819457 308.99395466 -0.21632767 C318.1910698 -0.23171171 327.38811866 -0.23685912 336.58524422 -0.22858956 C341.27873175 -0.22467717 345.97208573 -0.22564139 350.66555691 -0.23964691 C354.96190707 -0.25235034 359.25802284 -0.25121973 363.55437251 -0.2390562 C365.10887818 -0.23709303 366.66340025 -0.24020618 368.21788285 -0.24890056 C370.33157978 -0.2599745 372.44444674 -0.25251839 374.55812073 -0.24050903 C376.31885909 -0.24140467 376.31885909 -0.24140467 378.11516792 -0.24231839 C382.83293686 0.28360761 386.8262781 1.66319421 390.42875957 4.88533401 C390.8954002 5.48216995 391.36204082 6.07900589 391.84282207 6.69392776 C392.56598614 7.59304886 392.56598614 7.59304886 393.30375957 8.51033401 C395.99702605 12.2610239 395.60142769 15.80178052 395.58134747 20.2530098 C395.58149349 21.09210892 395.58163952 21.93120804 395.58178997 22.79573441 C395.58109176 25.57692907 395.57330363 28.35805726 395.56547832 31.13924026 C395.56361382 33.06452269 395.56219007 34.98980559 395.56119061 36.91508865 C395.55736799 41.98843566 395.54753986 47.06175415 395.53648663 52.13508987 C395.52626703 57.3096465 395.52169181 62.48420772 395.5166502 67.65877151 C395.50591738 77.81633614 395.488844 87.97387959 395.46782207 98.13142776 C392.85085804 96.901231 390.99308111 95.74300334 388.71782207 93.88142776 C385.03563482 91.20491316 381.01348851 89.60011395 376.78032207 88.00642776 C376.14578106 87.76505081 375.51124004 87.52367386 374.85747051 87.27498245 C372.74218226 86.50607359 370.61219716 85.81529369 368.46782207 85.13142776 C367.67556728 84.87219025 366.88331249 84.61295273 366.06704998 84.34585953 C356.63256053 81.61016742 347.52144133 81.7474172 337.79594707 81.83845901 C336.01948184 81.84406645 334.24301191 81.84833111 332.46654034 81.85132217 C327.83052141 81.86268072 323.19479232 81.89206858 318.55888653 81.92543411 C313.81242574 81.95633077 309.06591732 81.96986905 304.31938457 81.98494339 C295.03540429 82.01694847 285.75163745 82.06803363 276.46782207 82.13142776 C276.12590832 83.16044205 275.78399456 84.18945633 275.43171978 85.24965286 C274.14462498 89.12237872 272.85622568 92.9946696 271.56746197 96.86684036 C271.01328133 98.53249623 270.45943935 100.19826481 269.90596294 101.86415482 C266.54255618 111.98668997 263.16202302 122.0992497 259.52861309 132.12898636 C258.37120385 135.36165989 257.3806421 138.49202504 256.57182598 141.83748245 C255.48805828 146.24045135 254.0354057 150.46241246 252.49907207 154.72517776 C252.21809673 155.51613846 251.93712139 156.30709915 251.64763165 157.12202835 C250.45828157 160.46974904 249.26027662 163.81435426 248.06303692 167.1592598 C247.1845219 169.61766558 246.31046382 172.07762551 245.43657207 174.53767776 C245.16880962 175.28062088 244.90104717 176.023564 244.62517071 176.78902054 C243.41095135 180.20838719 242.31433342 183.59232959 241.47001934 187.1226387 C240.42753612 191.48117766 238.97540913 195.65051233 237.46391582 199.86580276 C237.0388953 201.06647385 237.0388953 201.06647385 236.60528851 202.29140091 C235.70876965 204.82265739 234.80739554 207.35214605 233.90532207 209.88142776 C233.00033439 212.42521599 232.09643162 214.96937683 231.19464397 217.5143013 C230.6357329 219.09098446 230.07489376 220.66698584 229.5118742 222.24220657 C228.34942656 225.5161884 227.27152949 228.7520343 226.46782207 232.13142776 C225.80782207 232.13142776 225.14782207 232.13142776 224.46782207 232.13142776 C222.94941196 227.79619542 221.43812784 223.4585629 219.93290997 219.11873245 C219.42175875 217.64802924 218.90879078 216.17795597 218.39384747 214.7085762 C215.64112877 206.84979215 213.10973621 199.07827543 211.195117 190.96541214 C209.8870733 185.86847651 208.05773818 180.95495068 206.28032207 176.00642776 C203.13663386 167.10358481 200.1907454 158.17169789 197.46782207 149.13142776 C193.06033632 134.53937529 188.13581123 120.12438167 182.89360332 105.81111526 C176.46782207 88.25117251 176.46782207 88.25117251 176.46782207 81.13142776 C166.23782207 81.13142776 156.00782207 81.13142776 145.46782207 81.13142776 C147.11782207 85.09142776 148.76782207 89.05142776 150.46782207 93.13142776 C151.23127783 95.34908495 151.96616821 97.57706804 152.65532207 99.81892776 C155.34666963 108.1612398 158.67819328 116.22339068 162.0779295 124.30012894 C168.78360413 140.57912896 163.65468516 152.00770909 157.90532207 167.81892776 C156.92030958 170.52955164 155.94068984 173.24204469 154.96391582 175.95564651 C154.53264385 177.14247025 154.10137188 178.32929398 153.65703106 179.55208206 C152.61618921 182.68486433 151.79948444 185.80563344 151.02661419 189.01236343 C149.98273772 192.97097583 148.57863765 196.8068757 147.21000957 200.66267776 C146.74813747 201.97746109 146.74813747 201.97746109 146.27693462 203.31880569 C145.30226624 206.09087953 144.32263068 208.86116714 143.34282207 211.63142776 C142.67712718 213.52193649 142.01175933 215.4125604 141.34672832 217.30330276 C139.72420444 221.91401824 138.09722646 226.52313956 136.46782207 231.13142776 C135.80782207 231.13142776 135.14782207 231.13142776 134.46782207 231.13142776 C132.94864902 226.93895729 131.4374134 222.74372888 129.93290997 218.54597855 C129.42196723 217.12368082 128.90900674 215.70210603 128.39384747 214.28133011 C125.63044224 206.65573089 123.13143273 199.14198563 121.27519512 191.23640823 C119.58336568 184.73000156 117.24944527 178.41065578 115.03032207 172.06892776 C114.54744822 170.67520407 114.06502439 169.28132437 113.58305645 167.88728714 C111.5178793 161.92843506 109.42297813 155.98353793 107.23344707 150.06892776 C105.79951579 146.15126829 104.63519782 142.25341299 103.65532207 138.19392776 C101.82704663 131.0839677 99.45288198 124.2500759 96.97124004 117.34480667 C95.02815044 111.88585056 93.43898484 106.46131641 92.15141582 100.80720901 C91.17592579 96.9888623 89.77989771 93.36436367 88.33500957 89.70174026 C87.46782207 87.13142776 87.46782207 87.13142776 86.46782207 81.13142776 C67.98782207 81.13142776 49.50782207 81.13142776 30.46782207 81.13142776 C30.48353252 86.71242386 30.49924297 92.29341995 30.5154295 98.04353714 C30.56520495 116.51159069 30.59845599 134.97964693 30.62325859 153.44775009 C30.63869323 164.64166064 30.65971734 175.83550739 30.69414043 187.02937698 C30.72414735 196.79186819 30.74342178 206.55431318 30.75008756 216.31684923 C30.75398076 221.48066084 30.76305859 226.64434026 30.78501225 231.80810928 C30.80555623 236.68033314 30.81162012 241.55237187 30.80714512 246.42463493 C30.80796238 248.20141294 30.81382035 249.97819792 30.8254385 251.75493813 C30.97029656 275.0753025 26.67537939 298.3189013 10.46782207 316.13142776 C2.90359338 318.89882851 -6.41344251 316.5825263 -13.75629902 314.09114456 C-14.83769154 313.72571045 -15.91908405 313.36027634 -17.03324604 312.98376846 C-17.85789356 312.70249603 -18.68254108 312.4212236 -19.53217793 312.13142776 C-19.64662544 274.04941204 -19.73472788 235.96742222 -19.78750457 197.88526931 C-19.7937581 193.38919685 -19.80022971 188.89312472 -19.80683613 184.39705276 C-19.80814768 183.50196682 -19.80945923 182.60688087 -19.81081053 181.6846711 C-19.83256633 167.19207064 -19.87198882 152.69956936 -19.91794191 138.20702773 C-19.96470169 123.3360321 -19.99247231 108.46508841 -20.0026204 93.59402227 C-20.00948056 84.41793505 -20.03114656 75.24212817 -20.07176026 66.06612724 C-20.09819273 59.77355416 -20.10617779 53.48112598 -20.09968481 47.18850142 C-20.09648266 43.55804035 -20.10138644 39.9280691 -20.1282053 36.29769516 C-20.15708777 32.3591574 -20.14710934 28.42125613 -20.13345051 24.48262405 C-20.14801472 23.3386423 -20.16257892 22.19466054 -20.17758447 21.01601267 C-20.11261627 14.09224098 -19.06118651 9.48146926 -14.53217793 4.13142776 C-10.14423147 0.00941746 -5.84110625 0.00620531 0 0 Z " fill="#FDFEFE" transform="translate(62.53217792510986,47.86857223510742)"/>
<path d="M0 0 C0.67190377 -0.00265183 1.34380753 -0.00530365 2.03607202 -0.00803584 C4.29773798 -0.01572294 6.5593496 -0.01628778 8.82102776 -0.01688576 C10.45489986 -0.02090076 12.08877097 -0.02533905 13.72264087 -0.03016531 C18.22072143 -0.04213231 22.71879126 -0.04777955 27.21688461 -0.05234647 C32.06504711 -0.05830203 36.91319678 -0.06991194 41.76135063 -0.08063698 C53.4735844 -0.10516124 65.18582242 -0.11978777 76.89807397 -0.13269705 C80.20573108 -0.13640883 83.51338776 -0.14038207 86.82104445 -0.14444971 C107.35841422 -0.16968505 127.89578465 -0.19173949 148.4331665 -0.20417786 C153.19037313 -0.20710758 157.94757973 -0.21006924 162.7047863 -0.21308327 C163.88717525 -0.21382932 165.06956421 -0.21457537 166.28778313 -0.21534403 C185.44436972 -0.22799931 204.60086352 -0.26122482 223.75740673 -0.3028851 C243.42205807 -0.34530008 263.0866619 -0.36887235 282.75135887 -0.37409842 C293.79357752 -0.37751292 304.83565114 -0.3892729 315.87782478 -0.42220116 C325.28129256 -0.4501967 334.68458559 -0.4612031 344.08809181 -0.4500057 C348.88532937 -0.44481791 353.68220094 -0.44771376 358.47938538 -0.47247124 C362.87409264 -0.49496215 367.26817096 -0.49422518 371.66288923 -0.47526737 C373.24975595 -0.47246714 374.83666531 -0.47806721 376.42346348 -0.4930803 C387.00998693 -0.58708979 395.00823816 0.50448611 403.21064568 7.63701439 C403.91189568 8.46201439 404.61314568 9.28701439 405.33564568 10.13701439 C406.03689568 10.92076439 406.73814568 11.70451439 407.46064568 12.51201439 C411.30999884 17.90110882 412.71019063 22.4634807 412.71596241 29.04557323 C412.72062233 29.70743154 412.72528225 30.36928985 412.73008338 31.05120447 C412.74199917 33.26082403 412.73265164 35.46982479 412.72332573 37.67944908 C412.72750017 39.28291468 412.73297829 40.88637732 412.73964554 42.48983449 C412.7541047 46.88998407 412.74985394 51.28994642 412.74247873 55.69010627 C412.73775047 60.43802137 412.75025395 65.18589576 412.76049614 69.93379784 C412.77769678 79.23340086 412.77852144 88.53293636 412.77328324 97.83255116 C412.76924229 105.39189792 412.7706842 112.95122472 412.77603149 120.51057053 C412.77677992 121.58635039 412.77752834 122.66213025 412.77829944 123.77050951 C412.77983092 125.95595446 412.78136926 128.14139941 412.78291441 130.32684436 C412.79664428 150.82452951 412.79119856 171.3221765 412.77972919 191.81986078 C412.76979854 210.56885807 412.78273374 229.31775664 412.80666339 248.0667387 C412.83105162 267.32017016 412.84066279 286.57355563 412.83401066 305.82700223 C412.83051754 316.63551623 412.83275653 327.44395434 412.85026169 338.25245667 C412.86498028 347.45456233 412.86562366 356.65653866 412.84819078 365.85864178 C412.8396752 370.55255293 412.83754483 375.24623301 412.85284233 379.94013214 C412.86668294 384.2402935 412.86193436 388.54002568 412.84260309 392.84016218 C412.83884082 394.39260924 412.84177166 395.94509063 412.85221475 397.49750713 C412.91603351 407.71405595 411.8861013 415.70690579 406.21064568 424.38701439 C399.65302167 430.65952431 392.84096852 434.25648077 383.76031113 434.27402878 C383.08588486 434.2766806 382.4114586 434.27933243 381.71659517 434.28206462 C379.44033664 434.28976813 377.16413196 434.29031719 374.88786125 434.29091454 C373.24588991 434.29492847 371.60391957 434.29936657 369.96195042 434.30419409 C365.43687675 434.3161732 360.91181376 434.32181114 356.38672733 434.32637525 C351.51129963 434.33232628 346.63588471 434.34393737 341.76046562 434.35466576 C329.97959493 434.37920123 318.19871999 434.3938186 306.4178316 434.40672582 C303.09124883 434.41043692 299.76466648 434.41441022 296.43808413 434.41847849 C275.78744071 434.44371417 255.13679664 434.46577074 234.4861412 434.47820663 C229.701601 434.48113641 224.91706082 434.48409806 220.13252068 434.48711205 C218.94332268 434.4878581 217.75412468 434.48860415 216.52889039 434.4893728 C197.26163397 434.50202828 177.9944698 434.53525325 158.72725652 434.57691388 C138.95303047 434.61932084 119.17885165 434.64290024 99.40458024 434.6481272 C88.29922174 434.65154272 77.1940074 434.66331457 66.08869362 434.69622993 C56.63137451 434.72421454 47.17422909 434.73523672 37.71687178 434.72403447 C32.89141219 434.71884378 28.06631644 434.72176134 23.24090958 434.74650002 C18.82154344 434.76896791 14.40280302 434.76827187 9.98342611 434.74929614 C8.3864532 434.74649268 6.78943809 434.75211401 5.19253312 434.76710908 C-5.17068454 434.85845421 -12.31749345 433.83967516 -20.25810432 426.85576439 C-21.20169807 425.75748314 -21.20169807 425.75748314 -22.16435432 424.63701439 C-22.81404182 423.90482689 -23.46372932 423.17263939 -24.13310432 422.41826439 C-25.79330055 419.94491083 -26.2926492 418.06935479 -26.66435432 415.13701439 C-27.32435432 415.13701439 -27.98435432 415.13701439 -28.66435432 415.13701439 C-28.66435432 391.04701439 -28.66435432 366.95701439 -28.66435432 342.13701439 C-29.32435432 342.13701439 -29.98435432 342.13701439 -30.66435432 342.13701439 C-30.59399656 341.3985553 -30.5236388 340.66009621 -30.45114899 339.89925957 C-29.36163612 326.49505846 -29.51039666 313.06715917 -29.50772285 299.62848854 C-29.50586333 295.89851608 -29.49824616 292.16855483 -29.49124336 288.4385891 C-29.47978065 281.99075018 -29.4715042 275.5429138 -29.46512413 269.09506798 C-29.45474592 258.9012285 -29.43417273 248.70742099 -29.41200447 238.5136013 C-29.40452734 235.01890383 -29.39711336 231.52420623 -29.3897171 228.02950859 C-29.38786654 227.15650131 -29.38601597 226.28349403 -29.38410933 225.38403198 C-29.36323302 215.47357086 -29.34437668 205.56310628 -29.3264637 195.65263939 C-29.32482552 194.74782996 -29.32318734 193.84302054 -29.32149951 192.91079265 C-29.29516167 178.21806598 -29.2765418 163.52533682 -29.2598718 148.83259648 C-29.24245464 133.72492246 -29.21362209 118.61729774 -29.17498243 103.50966311 C-29.15159968 94.20139929 -29.13758943 84.89321579 -29.13565479 75.58492237 C-29.13354632 69.21353288 -29.12062474 62.84222349 -29.09917547 56.47086996 C-29.08714652 52.79601818 -29.07999529 49.12132543 -29.08588791 45.446455 C-29.09216206 41.4624633 -29.07536498 37.47875804 -29.05635262 33.49480247 C-29.06188231 32.33479398 -29.06741201 31.17478549 -29.07310927 29.97962523 C-28.9959329 20.63268547 -27.00569433 14.95343939 -20.63310432 8.00029564 C-14.28478488 1.99206473 -8.63721032 0.01678847 0 0 Z M-11.97685432 20.57451439 C-14.68302628 24.68388662 -15.91460571 27.33585908 -15.91044998 32.31441689 C-15.91443208 33.36739975 -15.91841418 34.42038262 -15.92251694 35.50527406 C-15.91669126 36.66090718 -15.91086558 37.8165403 -15.90486336 39.00719261 C-15.90657221 40.23567602 -15.90828106 41.46415943 -15.91004169 42.7298696 C-15.91276952 46.14138978 -15.9065071 49.55268124 -15.89648557 52.96417379 C-15.88785814 56.64239278 -15.89077073 60.32060454 -15.89229012 63.9988308 C-15.89333941 70.37214142 -15.88705812 76.74541114 -15.87581444 83.11871147 C-15.8595685 92.33345679 -15.85435236 101.54818229 -15.85183845 110.76294038 C-15.84745993 125.71283825 -15.83414655 140.6627143 -15.81523323 155.61260033 C-15.79687851 170.13603672 -15.78272001 184.65946718 -15.77421761 199.18291283 C-15.77369216 200.07796061 -15.77316671 200.97300839 -15.77262534 201.89517882 C-15.77001529 206.38531763 -15.76748787 210.87545647 -15.76500154 215.36559534 C-15.74426413 252.62275042 -15.70903431 289.87988071 -15.66435432 327.13701439 C-13.7594769 327.79229797 -11.85278966 328.44232201 -9.94536018 329.09013939 C-8.35297775 329.63396263 -8.35297775 329.63396263 -6.72842598 330.1887722 C-2.79476219 331.40612818 0.66203913 331.87625045 4.77314568 332.13701439 C5.44023552 332.20017845 6.10732536 332.26334251 6.79463005 332.32842064 C10.23915373 332.5396575 12.12750693 332.26455473 15.08955193 330.44951439 C28.71063198 316.42572414 34.53475071 294.14123523 34.45590019 275.07573509 C34.45675462 274.3052754 34.45760904 273.53481571 34.45848936 272.74100876 C34.46012516 270.18158007 34.45465416 267.6222182 34.44917107 265.06279564 C34.44888876 263.21927454 34.44904778 261.37575332 34.44961357 259.53223228 C34.44989984 254.5431858 34.44403062 249.55416348 34.43703961 244.5651226 C34.43077773 239.34543544 34.43020003 234.1257477 34.42901421 228.90605736 C34.42590925 219.02880517 34.41770711 209.15156409 34.40766472 199.27431679 C34.39647764 188.02646286 34.39098659 176.77860839 34.38596928 165.53075027 C34.3755238 142.39949741 34.3571887 119.26825976 34.33564568 96.13701439 C52.81564568 96.13701439 71.29564568 96.13701439 90.33564568 96.13701439 C91.32564568 101.08701439 91.32564568 101.08701439 92.33564568 106.13701439 C93.08390335 108.28547703 93.88993367 110.41541767 94.77314568 112.51201439 C96.47865293 116.56459901 97.72143237 120.54388571 98.74970818 124.80888939 C100.25105788 131.00754551 102.19720701 136.98541231 104.27314568 143.01201439 C106.48427817 149.52040437 108.65378485 156.00423416 110.46064568 162.63701439 C111.95064851 168.03989421 113.82266215 173.23401676 115.83515739 178.45732689 C118.25525667 184.79402655 120.4364031 191.20395392 122.58564568 197.63701439 C122.92692497 198.65198997 123.26820427 199.66696556 123.61982536 200.71269798 C125.17340641 205.39121843 126.56161457 210.01993072 127.70088005 214.81865501 C129.30608212 220.68134688 131.45472234 226.40121831 133.46064568 232.13701439 C133.93361859 233.49758143 134.4062775 234.85825767 134.87861443 236.21904564 C136.027339 239.52630263 137.18031189 242.83205955 138.33564568 246.13701439 C138.99564568 246.13701439 139.65564568 246.13701439 140.33564568 246.13701439 C142.24366225 240.75369571 144.14560055 235.36827824 146.04243279 229.98100853 C146.68570704 228.15655656 147.33051163 226.33264328 147.9770031 224.50932884 C151.44089569 214.73668393 154.75471289 204.97277548 157.59895134 195.00092125 C159.40312898 188.7390513 161.63891207 182.6971107 164.02314568 176.63701439 C169.30496991 163.19237089 171.94090033 153.72729114 166.35127068 139.97295189 C166.05379936 139.21841728 165.75632805 138.46388268 165.44984245 137.68648338 C164.50380924 135.29143326 163.5453583 132.90161167 162.58564568 130.51201439 C161.33719936 127.37543796 160.09385721 124.23685358 158.85127068 121.09795189 C158.5495092 120.3385128 158.24774773 119.57907372 157.93684196 118.79662132 C155.57613458 112.82699982 153.38498039 106.81018904 151.27216911 100.7488308 C150.41666597 98.19982677 150.41666597 98.19982677 149.33564568 96.13701439 C159.56564568 96.13701439 169.79564568 96.13701439 180.33564568 96.13701439 C182.33564568 105.13701439 182.33564568 105.13701439 182.94111443 107.97295189 C184.51581545 114.84245301 186.80744122 121.29971416 189.29096794 127.8762722 C192.19083433 135.61223957 194.85049897 143.42456554 197.46064568 151.26201439 C197.78863152 152.24636467 197.78863152 152.24636467 198.12324333 153.25060081 C200.50857886 160.42675083 202.84105311 167.60899684 204.89814568 174.88701439 C207.31537125 183.39947425 210.25474418 191.71857118 213.21479607 200.0559597 C214.94228763 204.95207073 216.54386585 209.75786132 217.72065544 214.820364 C219.31985822 220.84451453 221.46816131 226.73304888 223.46064568 232.63701439 C223.93358196 234.04577457 224.40624061 235.454628 224.87861443 236.86357689 C226.02775683 240.28913773 227.18065944 243.71341883 228.33564568 247.13701439 C228.99564568 247.13701439 229.65564568 247.13701439 230.33564568 247.13701439 C230.61239128 246.29630394 230.88913689 245.45559349 231.17426872 244.58940697 C232.224779 241.40333282 233.27819462 238.21824768 234.33344841 235.0337429 C234.78542148 233.6679043 235.23630785 232.3017055 235.68598747 230.93511009 C237.96224703 224.01985899 240.28618899 217.16552174 242.98017693 210.39873314 C244.54541105 206.41339218 245.80365853 202.53777546 246.76923943 198.36748314 C248.61290784 190.48363052 251.5525452 183.01431637 254.39814568 175.44951439 C255.47923675 172.57311423 256.55216437 169.69384214 257.62080193 166.81279564 C257.86355354 166.17505714 258.10630516 165.53731865 258.35641289 164.88025475 C259.88346847 160.76282114 260.90432447 156.68590361 261.80911064 152.39185143 C262.66245723 148.73747448 263.9213892 145.25106149 265.19892693 141.72685814 C265.60971741 140.5709996 265.60971741 140.5709996 266.02880669 139.39179039 C266.89692417 136.95088129 267.771935 134.51252875 268.64814568 132.07451439 C269.51287016 129.66123341 270.37587872 127.24737735 271.23534966 124.83222008 C271.76648816 123.34037972 272.30048715 121.84955209 272.83840752 120.36014366 C275.57252856 112.69503307 277.9356565 104.91157296 280.33564568 97.13701439 C290.45535205 97.02024977 300.57489353 96.93186348 310.69514084 96.87795353 C315.39635501 96.85205614 320.09710239 96.81703007 324.79804802 96.75981712 C329.34984236 96.70477737 333.90119286 96.67544536 338.45329475 96.66262817 C340.17454436 96.6535154 341.89577462 96.6357282 343.61683083 96.60836411 C362.05560431 96.32733233 381.1859731 99.957347 395.77705193 112.00029564 C397.28344835 113.33343265 397.28344835 113.33343265 399.33564568 113.13701439 C399.4283801 102.02770317 399.49942831 90.91848424 399.54289436 79.80886459 C399.56375734 74.65004224 399.59205165 69.49148497 399.63740349 64.33281517 C399.68090692 59.35316047 399.70479249 54.37376053 399.71515465 49.39393044 C399.72253792 47.49532753 399.73695582 45.59673837 399.7585659 43.69824409 C399.78765976 41.03609036 399.7915992 38.37498546 399.78974724 35.71269798 C399.81131889 34.5388102 399.81131889 34.5388102 399.83332634 33.3412075 C399.78853387 27.37937902 397.93598567 23.87387223 393.77314568 19.49248314 C388.65200469 15.33155609 385.29504281 15.01248296 378.80346775 15.00558662 C378.14586056 15.00353399 377.48825337 15.00148136 376.81071869 14.99936652 C374.59771074 14.99369278 372.38476497 14.99515423 370.17175102 14.99657249 C368.57286438 14.99398908 366.97397838 14.99097599 365.37509328 14.98756909 C360.9738311 14.97949318 356.57258522 14.97770919 352.1713165 14.97697163 C347.42750954 14.97512212 342.68371105 14.96757535 337.93990898 14.96083641 C327.56397485 14.9472488 317.18804458 14.94122783 306.81210303 14.93682575 C300.33543042 14.9340643 293.85875931 14.92982715 287.38208771 14.92532158 C269.45574315 14.91312882 251.5293998 14.90282922 233.60305119 14.89944649 C232.45551944 14.89922692 231.30798769 14.89900736 230.12568225 14.89878114 C228.97538305 14.89856286 227.82508385 14.89834458 226.63992709 14.89811969 C224.30892638 14.89767622 221.97792568 14.89722966 219.64692497 14.89678001 C217.91253444 14.89644787 217.91253444 14.89644787 216.14310572 14.89610901 C197.40161083 14.8921598 178.66015479 14.87470205 159.91867491 14.85142049 C140.68457185 14.82771948 121.4504883 14.81524522 102.2163704 14.81407857 C91.41406311 14.81316115 80.61180645 14.80739205 69.80951309 14.78925896 C60.61239795 14.77387491 51.41534909 14.76872751 42.21822353 14.77699706 C37.524736 14.78090945 32.83138202 14.77994523 28.13791084 14.76593971 C23.84156068 14.75323629 19.54544491 14.7543669 15.24909524 14.76653042 C13.69458957 14.7684936 12.1400675 14.76538045 10.5855849 14.75668606 C8.47188797 14.74561212 6.35902101 14.75306824 4.24534702 14.76507759 C3.07152145 14.7644805 1.89769588 14.76388341 0.68829983 14.76326823 C-4.42152728 15.33289998 -8.36277562 16.76508008 -11.97685432 20.57451439 Z M62.33564568 106.13701439 C62.33325732 107.01993691 62.33086897 107.90285944 62.32840824 108.81253719 C62.26913594 130.3484954 62.19350808 151.88434284 62.09993076 173.42018032 C62.05506622 183.83497731 62.01563024 194.24974082 61.98921013 204.66460228 C61.96615415 213.74778298 61.93267195 222.83085689 61.88694412 231.91395277 C61.86311394 236.71830865 61.84431856 241.52255944 61.83803177 246.32697296 C61.83193439 250.86028746 61.81176905 255.39333341 61.78137016 259.926548 C61.77266382 261.57954981 61.76885175 263.23258681 61.77063751 264.88561058 C61.78826327 288.75559086 55.62899404 310.8177452 38.42548943 328.30498314 C28.11434104 338.14213248 14.58047549 344.83815667 0.25361443 345.45342064 C-1.14340706 345.51626244 -1.14340706 345.51626244 -2.5686512 345.58037376 C-3.52835823 345.61969017 -4.48806526 345.65900658 -5.47685432 345.69951439 C-6.45589729 345.74269798 -7.43494026 345.78588158 -8.4436512 345.83037376 C-10.85042459 345.93603699 -13.25729416 346.03813766 -15.66435432 346.13701439 C-15.80395526 353.93477644 -15.91027667 361.73224067 -15.97522736 369.53094196 C-16.0064162 373.15309585 -16.04865399 376.77438899 -16.11699104 380.39604759 C-16.18263849 383.89745546 -16.21815376 387.39804056 -16.23361778 390.90001678 C-16.24994615 392.87259787 -16.29671263 394.84485216 -16.34413338 396.81693077 C-16.34670112 403.7327448 -15.72004401 408.54338414 -11.73750496 414.27765465 C-4.07627396 421.14883142 4.19987706 420.70598985 13.89790154 420.64494896 C15.49128317 420.64956095 17.08466055 420.65591587 18.67802906 420.66385794 C23.04563318 420.68053349 27.41288704 420.67231301 31.78049231 420.65991306 C36.49495582 420.65085763 41.20935938 420.66483475 45.92381096 420.67583275 C55.15511746 420.69361726 64.38629385 420.68977827 73.61760545 420.67818218 C81.12021785 420.66914788 88.6227938 420.66792385 96.12541008 420.67227745 C97.72725368 420.67319685 97.72725368 420.67319685 99.36145777 420.67413482 C101.53088165 420.67541372 103.70030553 420.67671058 105.8697294 420.67802519 C126.21142932 420.68943079 146.55305713 420.67631757 166.89474523 420.65482372 C184.34806326 420.63695277 201.80127488 420.64005688 219.25459099 420.65849876 C239.52360505 420.67990581 259.79255592 420.68833215 280.0615797 420.67604971 C282.22301355 420.67477552 284.38444741 420.67351803 286.54588127 420.67227745 C287.60934224 420.67166035 288.6728032 420.67104325 289.76849025 420.67040744 C297.2619093 420.66695405 304.75528826 420.67278267 312.2487011 420.68219566 C321.38094504 420.69341516 330.51305146 420.69037658 339.64527965 420.66907269 C344.30451638 420.65856166 348.96352384 420.65444139 353.62275887 420.6676693 C357.88886041 420.67959788 362.15452039 420.67302305 366.42058194 420.65175909 C367.9628662 420.64729499 369.50518786 420.64955501 371.04744804 420.65926224 C380.10210665 420.71187702 387.2792508 420.59853928 394.39423943 414.32060814 C394.84927849 413.7443972 395.30431755 413.16818626 395.77314568 412.57451439 C396.48277458 411.7063308 396.48277458 411.7063308 397.20673943 410.82060814 C400.02538111 406.61702832 399.47203894 402.00370356 399.45590019 397.15845299 C399.45675462 396.22892333 399.45760904 395.29939367 399.45848936 394.34169644 C399.46014197 391.21396081 399.45462633 388.08627832 399.44917107 384.95854759 C399.44888912 382.72168034 399.44904707 380.48481299 399.44961357 378.24794579 C399.44990126 372.16359867 399.4440091 366.07927115 399.43703961 359.9949286 C399.43080137 353.64077684 399.4302019 347.28662467 399.42901421 340.93247032 C399.42625617 330.26358726 399.42000389 319.59471197 399.41108513 308.92583275 C399.40190782 297.93624978 399.39482854 286.94666877 399.39057732 275.95708275 C399.39031459 275.27982292 399.39005187 274.6025631 399.38978118 273.90478025 C399.38847616 270.50720799 399.38721245 267.10963571 399.38596928 263.71206343 C399.37560052 235.5203754 399.35791128 207.32869534 399.33564568 179.13701439 C398.67564568 179.13701439 398.01564568 179.13701439 397.33564568 179.13701439 C396.60861443 179.87693626 395.88158318 180.61685814 395.13252068 181.37920189 C392.19837039 184.27237242 389.15828346 186.28246154 385.58564568 188.26201439 C384.96077263 188.60965843 384.33589958 188.95730247 383.69209099 189.31548119 C373.35749654 194.94657876 362.84666343 196.38614761 351.33564568 198.13701439 C351.33564568 198.79701439 351.33564568 199.45701439 351.33564568 200.13701439 C338.79564568 200.13701439 326.25564568 200.13701439 313.33564568 200.13701439 C313.33564568 227.52701439 313.33564568 254.91701439 313.33564568 283.13701439 C304.09564568 283.13701439 294.85564568 283.13701439 285.33564568 283.13701439 C285.33564568 230.33701439 285.33564568 177.53701439 285.33564568 123.13701439 C282.61203023 125.86062983 281.84681289 129.03535477 280.64814568 132.60967064 C278.49625924 138.86586342 276.26214426 145.07885092 273.89814568 151.25810814 C273.46091179 152.40432137 273.46091179 152.40432137 273.01484489 153.57369041 C271.82655441 156.68533465 270.63493769 159.79568608 269.44013786 162.90483665 C265.88654851 172.16261658 262.51612214 181.44365576 259.42791557 190.8674984 C257.46237159 196.8389476 255.25827975 202.68487631 252.89814568 208.51201439 C250.07176579 215.60902647 247.37159434 222.72186644 244.89814568 229.94951439 C241.76698447 239.09847813 238.31716204 248.11215424 234.79878044 257.11870384 C232.47733542 263.07937024 230.30484118 269.05148851 228.33564568 275.13701439 C226.64814568 280.01201439 226.64814568 280.01201439 225.88642693 282.19170189 C225.19943382 284.28113949 225.19943382 284.28113949 225.33564568 287.13701439 C223.04267693 287.18388939 223.04267693 287.18388939 220.33564568 286.13701439 C218.74482577 283.39667214 217.93576271 280.40885972 217.02314568 277.38701439 C216.43103721 275.56444087 215.83587887 273.74285592 215.23798943 271.92217064 C214.93103142 270.97358177 214.62407341 270.0249929 214.30781364 269.04765892 C212.70654444 264.25350234 210.90041639 259.54115267 209.08564568 254.82451439 C208.75653191 253.96052025 208.42741814 253.09652611 208.08833122 252.20635033 C206.69890995 248.57930425 205.28515607 244.97605891 203.72627068 241.41826439 C202.40063388 238.29035735 201.34639484 235.19101853 200.33564568 231.94951439 C197.45544325 222.99959996 193.9049074 214.31002351 190.43330193 205.57719994 C187.51024056 198.20054083 184.69402012 190.81040346 182.17378044 183.28594017 C180.85361535 179.388409 179.25103513 175.77848156 177.33564568 172.13701439 C174.99335433 174.97378946 173.78398512 177.34203124 172.83564568 180.88701439 C171.60833893 185.4163607 170.0170913 189.76072074 168.33564568 194.13701439 C167.51771076 196.27755282 166.7000258 198.41818677 165.88252068 200.55888939 C165.43175163 201.73902611 164.98098259 202.91916283 164.51655388 204.13506126 C160.4791852 214.71663991 156.51059983 225.30894456 152.82880974 236.02080345 C150.78378478 241.94086972 148.58773998 247.7928431 146.33564568 253.63701439 C143.57549139 260.81328112 140.8979971 268.01256335 138.33564568 275.26201439 C138.03271599 276.10957298 137.7297863 276.95713158 137.41767693 277.83037376 C137.00582146 279.00696556 137.00582146 279.00696556 136.58564568 280.20732689 C136.34330193 280.8958474 136.10095818 281.5843679 135.85127068 282.29375267 C135.200949 284.29952572 135.200949 284.29952572 135.33564568 287.13701439 C133.01923943 287.07451439 133.01923943 287.07451439 130.33564568 286.13701439 C129.06227021 283.73418304 128.21893319 281.69439348 127.39814568 279.13701439 C127.14782585 278.41715355 126.89750603 277.69729271 126.63960075 276.9556179 C125.85387649 274.68839666 125.09457888 272.41332184 124.33564568 270.13701439 C123.40924726 267.44558994 122.46708103 264.759831 121.52314568 262.07451439 C121.16361809 261.04197533 121.16361809 261.04197533 120.79682732 259.98857689 C118.27181929 252.80431822 115.45763376 245.73785188 112.65717888 238.6575222 C110.12919276 232.23971143 107.75301183 225.79020862 105.50141716 219.27104759 C103.75336262 214.23884236 101.85568244 209.27865447 99.89814568 204.32451439 C97.43294273 198.08050363 95.14051053 191.79857449 92.96064568 185.44951439 C90.06837132 177.03637445 86.87908583 168.76352387 83.60175896 160.49370384 C81.13926442 154.25765958 78.83412989 147.99156557 76.65278435 141.65263939 C74.11213546 134.34706879 71.25863242 127.16521938 68.40595818 119.97685814 C66.59180059 115.39706173 64.82077027 110.83727573 63.33564568 106.13701439 C63.00564568 106.13701439 62.67564568 106.13701439 62.33564568 106.13701439 Z " fill="#084DAC" transform="translate(58.66435432434082,32.862985610961914)"/>
<path d="M0 0 C10.23 0 20.46 0 31 0 C34.26086957 9.7826087 34.26086957 9.7826087 35.25 14.375 C36.50823212 19.53697793 38.18649742 24.41555068 40.0625 29.375 C43.28015624 37.8932567 46.24811496 46.48661992 49.125 55.125 C49.45298584 56.10935028 49.45298584 56.10935028 49.78759766 57.11358643 C52.17293319 64.28973644 54.50540744 71.47198245 56.5625 78.75 C58.97972558 87.26245986 61.9190985 95.5815568 64.87915039 103.91894531 C66.61865857 108.84911423 68.23383869 113.69957958 69.41625977 118.7902832 C71.18223629 125.47529095 73.65848455 131.9915201 75.8984375 138.52929688 C76.29546875 139.70169922 76.6925 140.87410156 77.1015625 142.08203125 C77.46588379 143.14655518 77.83020508 144.2110791 78.20556641 145.30786133 C79 148 79 148 79 151 C79.66 151 80.32 151 81 151 C81.0825 150.0925 81.165 149.185 81.25 148.25 C82.0268887 142.62625347 84.11803229 137.33078295 86 132 C87.07174763 135.65188082 86.76411467 138.26432828 86 142 C86.99 142 87.98 142 89 142 C89 140.68 89 139.36 89 138 C89.66 138 90.32 138 91 138 C91 139.65 91 141.3 91 143 C91.66 143.33 92.32 143.66 93 144 C92.71278076 144.74048584 92.42556152 145.48097168 92.12963867 146.24389648 C90.81341877 149.64092665 89.500438 153.03920011 88.1875 156.4375 C87.50977539 158.18450195 87.50977539 158.18450195 86.81835938 159.96679688 C84.38706062 166.26687758 82.06541264 172.57094844 80 179 C78.66666667 183 77.33333333 187 76 191 C74.35 191 72.7 191 71 191 C68.02406796 184.70475914 65.64393036 178.30436423 63.35961914 171.73706055 C61.56870973 166.59374866 59.72301535 161.47512495 57.8125 156.375 C57.5748291 155.7368335 57.3371582 155.09866699 57.09228516 154.44116211 C55.94848239 151.39995944 54.74268868 148.4069525 53.44921875 145.42578125 C52.10422339 142.24637173 51.02692641 139.1058851 50 135.8125 C47.12006031 126.86340197 43.56842095 118.17546096 40.09985352 109.44238281 C36.92546338 101.42571179 33.91271835 93.37978982 31.12109375 85.22265625 C30.15465121 82.44455487 29.11968602 79.71923748 28 77 C24.95236426 83.51601592 22.48448816 90.12496646 20.1875 96.9375 C17.74389074 104.08101675 15.22353359 111.17017789 12.4375 118.1875 C9.52876603 125.51437404 6.87456262 132.91247559 4.30834961 140.3659668 C2.95875382 144.28421231 1.59199942 148.17143554 0 152 C-0.33 152 -0.66 152 -1 152 C-1 150.02 -1 148.04 -1 146 C-1.99 146 -2.98 146 -4 146 C-4.33 145.34 -4.66 144.68 -5 144 C-6.485 144.99 -6.485 144.99 -8 146 C-5.59789077 136.32044397 -2.15600181 127.15014757 1.41601562 117.8515625 C3.4850501 112.38362088 5.29024993 107.13155108 6.42016602 101.39990234 C7.76496578 95.83384689 9.95778403 90.48994457 11.9375 85.125 C15.60270383 75.18746741 15.60270383 75.18746741 18.87890625 65.1171875 C19.12326416 64.31651855 19.36762207 63.51584961 19.61938477 62.69091797 C20.57994607 55.89982967 18.53015594 50.02341569 16.015625 43.8359375 C15.71815369 43.08140289 15.42068237 42.32686829 15.11419678 41.54946899 C14.16816356 39.15441887 13.20971263 36.76459729 12.25 34.375 C11.00155381 31.23842389 9.75792678 28.09995172 8.515625 24.9609375 C8.21458862 24.20149841 7.91355225 23.44205933 7.60339355 22.65960693 C0 3.39584329 0 3.39584329 0 0 Z " fill="#054BAB" transform="translate(208,129)"/>
<path d="M0 0 C0.8859082 0.01281006 1.77181641 0.02562012 2.68457031 0.03881836 C9.10435904 0.23862154 14.49198168 0.98824638 20 4.5 C20.77214844 4.974375 21.54429687 5.44875 22.33984375 5.9375 C31.49984241 12.27786513 37.61609726 22.67965103 40 33.5 C41.25667585 47.84837491 38.0021593 61.54181444 28.75 72.9375 C21.86939629 80.10542562 14.49156195 82.65253142 5 85.5 C-6.22 85.5 -17.44 85.5 -29 85.5 C-29 58.77 -29 32.04 -29 4.5 C-7.93112762 -0.18197164 -7.93112762 -0.18197164 0 0 Z " fill="#FBFCFD" transform="translate(401,138.5)"/>
<path d="M0 0 C0.66 0 1.32 0 2 0 C2.02288906 38.71902181 2.04050978 77.4380426 2.05106533 116.1570698 C2.05231604 120.72824837 2.05361036 125.29942692 2.05493164 129.87060547 C2.05519395 130.78064449 2.05545626 131.69068351 2.05572652 132.62829947 C2.06007778 147.36334408 2.06796234 162.09838478 2.0771528 176.83342707 C2.08650445 191.95303138 2.09205882 207.07263364 2.09408849 222.19224072 C2.09546057 231.52175786 2.09979416 240.85126398 2.10791647 250.18077773 C2.11320256 256.57844481 2.11480004 262.97610619 2.11350138 269.3737753 C2.11286092 273.06480962 2.11384252 276.75582466 2.11920547 280.44685555 C2.12498068 284.45091108 2.12298638 288.45492562 2.12025452 292.45898438 C2.12462378 294.20413912 2.12462378 294.20413912 2.12908131 295.98454952 C2.11842905 301.75387567 1.87359477 307.29495535 1 313 C0.67 313 0.34 313 0 313 C-0.15027755 273.27008593 -0.29530621 233.5401559 -0.4332476 193.810197 C-0.44951953 189.124848 -0.46583514 184.43949915 -0.48217773 179.75415039 C-0.48543066 178.82134089 -0.48868358 177.88853139 -0.49203508 176.92745494 C-0.54488217 161.80291415 -0.60127123 146.67838852 -0.6589582 131.5538655 C-0.71802616 116.04671261 -0.77331345 100.53954959 -0.82505554 85.03237051 C-0.85713011 75.45561156 -0.89219034 65.87887293 -0.93101191 56.30213892 C-0.9573139 49.74427786 -0.97995966 43.18641068 -0.99967117 36.62852652 C-1.0111711 32.83911344 -1.02433953 29.04972458 -1.04183006 25.26033401 C-1.06070522 21.16188776 -1.07191002 17.06345762 -1.08229065 12.96498108 C-1.08909444 11.75391805 -1.09589823 10.54285503 -1.10290819 9.29509312 C-1.10440054 8.20628265 -1.10589289 7.11747218 -1.10743046 5.99566746 C-1.11084794 5.04826523 -1.11426542 4.10086301 -1.11778647 3.12475163 C-1 1 -1 1 0 0 Z " fill="#C7E0ED" transform="translate(28,55)"/>
<path d="M0 0 C2.31 0 4.62 0 7 0 C7.33 1.32 7.66 2.64 8 4 C57.92970197 4.02288286 107.85940341 4.04050663 157.78910959 4.05106533 C163.68216031 4.05231605 169.57521102 4.05361037 175.46826172 4.05493164 C176.64147484 4.05519395 177.81468796 4.05545626 179.023453 4.05572652 C198.02640459 4.06007925 217.02935317 4.06796463 236.03230298 4.0771528 C255.52731535 4.08650035 275.02232614 4.09205795 294.51734066 4.09408849 C306.54928967 4.09546142 318.58123014 4.09979964 330.61317652 4.10791647 C338.86102428 4.1131975 347.10886761 4.11480119 355.35671693 4.11350138 C360.11709025 4.11286013 364.87744862 4.11385151 369.63781929 4.11920547 C373.99660861 4.12407201 378.35537295 4.12431721 382.71416342 4.12089889 C384.2903389 4.12047641 385.86651594 4.12174466 387.44268835 4.12488318 C396.48372785 4.14183796 405.13135905 3.94001521 414 2 C409.42627323 5.62743847 406.21082737 6.12563992 400.42187214 6.13422108 C399.74714628 6.13657331 399.07242042 6.13892554 398.37724832 6.14134905 C396.09997837 6.14804428 393.82276542 6.14758067 391.54548645 6.14717102 C389.90280259 6.15046932 388.26011955 6.15419481 386.61743754 6.1583125 C382.09043133 6.16834447 377.56343837 6.17205122 373.03642261 6.17470181 C368.15897041 6.1786013 363.28152874 6.18817987 358.40408325 6.19691467 C346.61876559 6.21668891 334.83344706 6.22674641 323.04811695 6.23564246 C317.5008293 6.24002371 311.95354261 6.24539093 306.40625572 6.25063133 C287.97040028 6.26764441 269.53454544 6.28213924 251.09868336 6.28938007 C246.31310335 6.29129003 241.52752335 6.29321035 236.74194336 6.29516602 C235.55248305 6.29564976 234.36302275 6.2961335 233.13751819 6.2966319 C213.86313511 6.30493462 194.58881404 6.3302753 175.31445805 6.36274669 C155.53458613 6.39579859 135.75474575 6.41382713 115.97484607 6.41702431 C104.8656309 6.41919112 93.75650617 6.42796475 82.64731789 6.45348549 C73.18742338 6.47516692 63.72764127 6.4832555 54.26772473 6.47351871 C49.44041473 6.46896662 44.61333677 6.47091298 39.78605843 6.49028015 C35.36620005 6.50785973 30.94674388 6.50695654 26.52688154 6.49138286 C24.92858424 6.48899886 23.33025948 6.4933713 21.73200426 6.50521151 C13.62257303 6.561563 6.97298067 6.58634364 0 2 C0 1.34 0 0.68 0 0 Z " fill="#1A55A4" transform="translate(42,461)"/>
<path d="M0 0 C2.77867692 2.77867692 2.65193902 5.1713292 3 9 C2.67 9.33 2.34 9.66 2 10 C1.89101472 11.9992777 1.85309356 14.00243987 1.84178162 16.00465393 C1.8319928 17.31022247 1.82220398 18.61579102 1.81211853 19.96092224 C1.80621355 21.4212948 1.80040316 22.88166774 1.79467773 24.34204102 C1.78510472 25.86926543 1.77509499 27.39648716 1.76467896 28.92370605 C1.7375613 33.08258801 1.71658902 37.2414814 1.69667697 41.40040326 C1.67485958 45.74196806 1.64745018 50.08349737 1.62062073 54.42503357 C1.57063623 62.65211008 1.52571884 70.87920624 1.48259836 79.10632128 C1.43327508 88.47015585 1.37833881 97.83395481 1.32291877 107.19775498 C1.20901038 126.46513695 1.10219073 145.7325525 1 165 C0.67 165 0.34 165 0 165 C0 110.55 0 56.1 0 0 Z " fill="#EDF9FE" transform="translate(121,139)"/>
<path d="M0 0 C0.66 0 1.32 0 2 0 C-0.18340181 7.86379677 -2.99285026 15.41675284 -6 23 C-6.33 23 -6.66 23 -7 23 C-7 21.02 -7 19.04 -7 17 C-7.99 17 -8.98 17 -10 17 C-10.33 16.34 -10.66 15.68 -11 15 C-11.99 15.66 -12.98 16.32 -14 17 C-13.01 13.37 -12.02 9.74 -11 6 C-10.67 6 -10.34 6 -10 6 C-9.67 7.65 -9.34 9.3 -9 11 C-8.34 10.67 -7.68 10.34 -7 10 C-6.67 10.99 -6.34 11.98 -6 13 C-5.34 13.33 -4.68 13.66 -4 14 C-4 12.35 -4 10.7 -4 9 C-3.34 9 -2.68 9 -2 9 C-2 7.35 -2 5.7 -2 4 C-1.34 4 -0.68 4 0 4 C0 2.68 0 1.36 0 0 Z " fill="#1E59AA" transform="translate(214,258)"/>
<path d="M0 0 C2 3 2 3 1.75 5.9375 C1.08198711 8.66521931 0.56894074 10.6878768 -1 13 C-1.66 13.309375 -2.32 13.61875 -3 13.9375 C-5.23722783 14.84856346 -5.23722783 14.84856346 -5.9375 17.375 C-7.27448384 20.67813656 -9.13649309 21.96540299 -12 24 C-12.66 23.67 -13.32 23.34 -14 23 C-13.57589844 22.42894531 -13.15179688 21.85789062 -12.71484375 21.26953125 C-7.79618684 14.46989346 -3.83893636 7.44450273 0 0 Z " fill="#1555A8" transform="translate(87,340)"/>
<path d="M0 0 C0.66 0 1.32 0 2 0 C2 1.65 2 3.3 2 5 C2.66 5 3.32 5 4 5 C4.66 7.31 5.32 9.62 6 12 C6.66 12 7.32 12 8 12 C8.36504603 13.58086048 8.71660506 15.16483907 9.0625 16.75 C9.25972656 17.63171875 9.45695313 18.5134375 9.66015625 19.421875 C10.00298742 22.02266321 9.70340244 23.51848845 9 26 C7.49172203 22.23242503 5.99481006 18.46043651 4.5 14.6875 C4.07074219 13.61564453 3.64148438 12.54378906 3.19921875 11.43945312 C2.59013672 9.89741211 2.59013672 9.89741211 1.96875 8.32421875 C1.40317383 6.9024231 1.40317383 6.9024231 0.82617188 5.4519043 C0 3 0 3 0 0 Z " fill="#215CA7" transform="translate(170,268)"/>
<path d="M0 0 C0.66 1.32 1.32 2.64 2 4 C1.34 4.66 0.68 5.32 0 6 C-0.86630035 8.2191225 -0.86630035 8.2191225 -1.5625 10.75 C-1.95308594 12.08804688 -1.95308594 12.08804688 -2.3515625 13.453125 C-3.09071611 16.13505997 -3.09071611 16.13505997 -3.4375 19.5 C-3.623125 20.325 -3.80875 21.15 -4 22 C-6.03515625 23.15625 -6.03515625 23.15625 -8 24 C-5.96136383 15.72943539 -3.17712327 7.89885589 0 0 Z " fill="#1C56A3" transform="translate(303,237)"/>
<path d="M0 0 C2.77867692 2.77867692 2.65193902 5.1713292 3 9 C2.67 9.33 2.34 9.66 2 10 C1.84235595 11.77869726 1.74899323 13.56318476 1.68359375 15.34765625 C1.64169922 16.42724609 1.59980469 17.50683594 1.55664062 18.61914062 C1.51732422 19.75544922 1.47800781 20.89175781 1.4375 22.0625 C1.39431641 23.20267578 1.35113281 24.34285156 1.30664062 25.51757812 C1.20017161 28.34492195 1.09815793 31.17235738 1 34 C0.67 34 0.34 34 0 34 C0 22.78 0 11.56 0 0 Z " fill="#E1F1F8" transform="translate(121,139)"/>
<path d="M0 0 C0.33 0 0.66 0 1 0 C1.37369729 7.47394574 0.04061541 13.82140651 -2 21 C-2.33 21 -2.66 21 -3 21 C-3 19.35 -3 17.7 -3 16 C-3.66 15.67 -4.32 15.34 -5 15 C-4.50628906 14.5978125 -4.01257813 14.195625 -3.50390625 13.78125 C-1.57921682 11.50161785 -1.73745856 10.4274357 -1.9375 7.5 C-2.17571818 3.8351049 -2.16084241 3.24126361 0 0 Z " fill="#1E58A6" transform="translate(119,310)"/>
<path d="M0 0 C0.66 0 1.32 0 2 0 C4.01178391 2.33366933 5.01595171 4.04785514 6 7 C6.66 7 7.32 7 8 7 C7.33333333 8.33333333 6.66666667 9.66666667 6 11 C6.60760482 13.3494053 7.27129528 15.68529088 8 18 C7.34 18 6.68 18 6 18 C4.99600476 15.37646482 3.99665555 12.75132205 3 10.125 C2.57074219 9.00544922 2.57074219 9.00544922 2.1328125 7.86328125 C0 2.2265625 0 2.2265625 0 0 Z " fill="#1955A5" transform="translate(246,231)"/>
<path d="M0 0 C0.99 0 1.98 0 3 0 C2.3661521 5.517155 0.49435691 10.26747809 -1.5625 15.375 C-1.89185547 16.20644531 -2.22121094 17.03789062 -2.56054688 17.89453125 C-3.36844762 19.93184618 -4.1817011 21.96684442 -5 24 C-5.33 24 -5.66 24 -6 24 C-6.30441576 19.73817931 -5.33096681 16.98256216 -3.5625 13.125 C-1.59947927 8.6333424 -0.33253996 4.87725276 0 0 Z " fill="#1A53A1" transform="translate(222,232)"/>
<path d="M0 0 C0.66 0 1.32 0 2 0 C2.185625 1.7015625 2.185625 1.7015625 2.375 3.4375 C2.684375 5.2009375 2.684375 5.2009375 3 7 C3.66 7.33 4.32 7.66 5 8 C7.14418558 11.21627837 7.67582137 13.19090105 8 17 C7.34 17.66 6.68 18.32 6 19 C5.18309823 16.77236012 4.37138128 14.5430514 3.5625 12.3125 C3.21735352 11.37374023 3.21735352 11.37374023 2.86523438 10.41601562 C1.61946333 6.96757692 0.60195551 3.6186521 0 0 Z " fill="#1150A2" transform="translate(262,273)"/>
<path d="M0 0 C1.62276158 2.43414237 2.61744792 4.31319446 3.625 7 C3.88539063 7.680625 4.14578125 8.36125 4.4140625 9.0625 C5 11 5 11 5 14 C5.66 14 6.32 14 7 14 C7.33 13.01 7.66 12.02 8 11 C7.67 12.65 7.34 14.3 7 16 C6.01 15.67 5.02 15.34 4 15 C3.66666667 13.66666667 3.33333333 12.33333333 3 11 C2.01 10.67 1.02 10.34 0 10 C0 6.7 0 3.4 0 0 Z " fill="#3A6DB0" transform="translate(192,265)"/>
<path d="M0 0 C1.4216868 4.26506039 -0.34613318 7.20037743 -1.9375 11.1875 C-2.22818359 11.93708984 -2.51886719 12.68667969 -2.81835938 13.45898438 C-3.53725036 15.30924477 -4.26754653 17.15506648 -5 19 C-5.33 19 -5.66 19 -6 19 C-5.67 15.04 -5.34 11.08 -5 7 C-4.01 6.67 -3.02 6.34 -2 6 C-2 4.68 -2 3.36 -2 2 C-1.34 2 -0.68 2 0 2 C0 1.34 0 0.68 0 0 Z " fill="#285FA9" transform="translate(319,219)"/>
<path d="M0 0 C2.64 0 5.28 0 8 0 C6.5361389 4.39158329 4.02168662 4.87947433 0 7 C0 4.69 0 2.38 0 0 Z " fill="#1050A5" transform="translate(86,363)"/>
<path d="M0 0 C2.44358168 3.66537252 3.72189872 7.36872864 5.1875 11.5 C5.47302734 12.27214844 5.75855469 13.04429687 6.05273438 13.83984375 C6.31763672 14.58363281 6.58253906 15.32742187 6.85546875 16.09375 C7.09934326 16.77115234 7.34321777 17.44855469 7.59448242 18.14648438 C8 20 8 20 7 23 C5.99919354 20.77004775 5.00415828 18.53793737 4.01953125 16.30078125 C3.30598986 14.69052883 2.56818272 13.090911 1.8125 11.5 C0.59217124 7.74514228 0.32466998 3.92167157 0 0 Z " fill="#5280B8" transform="translate(149,132)"/>
<path d="M0 0 C0.66 0 1.32 0 2 0 C1.68950274 1.43793392 1.3765224 2.8753318 1.0625 4.3125 C0.88847656 5.11300781 0.71445312 5.91351563 0.53515625 6.73828125 C0 9 0 9 -1 12 C-2.65 12 -4.3 12 -6 12 C-4.68 11.67 -3.36 11.34 -2 11 C-2.33 8.03 -2.66 5.06 -3 2 C-2.34 2 -1.68 2 -1 2 C-0.67 1.34 -0.34 0.68 0 0 Z " fill="#225BA8" transform="translate(285,308)"/>
<path d="M0 0 C1.04702186 3.7264085 1.07442057 7.13013042 1 11 C0.360625 11.2475 -0.27875 11.495 -0.9375 11.75 C-3.18741541 12.81562433 -3.18741541 12.81562433 -3.75 15.125 C-3.8325 15.74375 -3.915 16.3625 -4 17 C-5 15 -5 15 -4.00390625 11.5234375 C-3.53099953 10.13802064 -3.05018356 8.75528453 -2.5625 7.375 C-2.31951172 6.66859375 -2.07652344 5.9621875 -1.82617188 5.234375 C-1.22412795 3.48726713 -0.61291983 1.74332214 0 0 Z " fill="#4475B6" transform="translate(294,261)"/>
<path d="M0 0 C2.01635978 3.02453967 3.03246502 5.63075348 4.1875 9.0625 C4.55230469 10.12597656 4.91710937 11.18945312 5.29296875 12.28515625 C6 15 6 15 5 17 C1.73325049 11.88209244 -0.3331674 7.0930194 -1 1 C-0.67 0.67 -0.34 0.34 0 0 Z " fill="#245DA5" transform="translate(281,262)"/>
<path d="M0 0 C1.875 0.5625 1.875 0.5625 4 2 C5.70060271 6.42156704 6.23002629 10.28446112 6 15 C4.19969878 12.29954818 3.06622934 9.93322119 1.875 6.9375 C1.52179688 6.05964844 1.16859375 5.18179687 0.8046875 4.27734375 C0 2 0 2 0 0 Z " fill="#3368AD" transform="translate(183,304)"/>
<path d="M0 0 C1.98 0 3.96 0 6 0 C5.34 2.64 4.68 5.28 4 8 C3.34 8 2.68 8 2 8 C1.34 5.36 0.68 2.72 0 0 Z " fill="#DFEDF6" transform="translate(285,272)"/>
<path d="M0 0 C0.66 0.33 1.32 0.66 2 1 C0.35 5.29 -1.3 9.58 -3 14 C-5 11 -5 11 -4.625 8.8125 C-4.41875 8.214375 -4.2125 7.61625 -4 7 C-3.34 7 -2.68 7 -2 7 C-1.855625 6.401875 -1.71125 5.80375 -1.5625 5.1875 C-1.1127561 3.43849596 -0.57107659 1.71322977 0 0 Z " fill="#1A54A6" transform="translate(299,272)"/>
<path d="M0 0 C1.29212918 4.21787883 0.46211546 6.83297093 -1 11 C-2.625 13.9375 -2.625 13.9375 -4 16 C-5 14 -5 14 -4.00390625 10.7421875 C-3.53110016 9.4502948 -3.05028031 8.16131362 -2.5625 6.875 C-2.31951172 6.21628906 -2.07652344 5.55757812 -1.82617188 4.87890625 C-1.22421679 3.25008662 -0.61297588 1.62470425 0 0 Z " fill="#4776B3" transform="translate(219,217)"/>
<path d="M0 0 C0.66 0.99 1.32 1.98 2 3 C1.5390625 5.26171875 1.5390625 5.26171875 0.625 7.6875 C0.18027344 8.89986328 0.18027344 8.89986328 -0.2734375 10.13671875 C-0.51320312 10.75160156 -0.75296875 11.36648437 -1 12 C-1.66 11.67 -2.32 11.34 -3 11 C-2.25 3.375 -2.25 3.375 0 0 Z " fill="#2C63AE" transform="translate(33,47)"/>
<path d="M0 0 C0.33 0 0.66 0 1 0 C1.375 2.6875 1.375 2.6875 1 6 C-0.823983 8.06398076 -2.72763839 9.39041053 -5 11 C-5.66 10.67 -6.32 10.34 -7 10 C-5.85821872 8.33055479 -4.71147095 6.6645052 -3.5625 5 C-2.92441406 4.071875 -2.28632812 3.14375 -1.62890625 2.1875 C-1.09136719 1.465625 -0.55382812 0.74375 0 0 Z " fill="#275EAA" transform="translate(80,353)"/>
<path d="M0 0 C0.99 0 1.98 0 3 0 C1.66654496 3.59007126 0.1056769 6.79570907 -2 10 C-2.33 10 -2.66 10 -3 10 C-3 8.35 -3 6.7 -3 5 C-2.34 5 -1.68 5 -1 5 C-1.33 4.01 -1.66 3.02 -2 2 C-1.34 1.34 -0.68 0.68 0 0 Z " fill="#1852A5" transform="translate(108,342)"/>
<path d="M0 0 C0.33 0 0.66 0 1 0 C1.6875 2.8125 1.6875 2.8125 2 6 C0.6875 7.625 0.6875 7.625 -1 9 C-2.17574711 11.09989652 -2.17574711 11.09989652 -3 13 C-4 11 -4 11 -3.22265625 8.3984375 C-2.83980469 7.40070313 -2.45695312 6.40296875 -2.0625 5.375 C-1.68222656 4.37210938 -1.30195313 3.36921875 -0.91015625 2.3359375 C-0.60980469 1.56507813 -0.30945313 0.79421875 0 0 Z " fill="#4A79B7" transform="translate(309,217)"/>
<path d="M0 0 C1.23593891 3.70781672 0.5678132 4.67510253 -0.9375 8.1875 C-1.31777344 9.08855469 -1.69804687 9.98960937 -2.08984375 10.91796875 C-2.54037109 11.94857422 -2.54037109 11.94857422 -3 13 C-3.66 13 -4.32 13 -5 13 C-3.25740319 3.40546697 -3.25740319 3.40546697 0 0 Z " fill="#18519E" transform="translate(329,191)"/>
<path d="M0 0 C0.99 0.33 1.98 0.66 3 1 C1.71278701 5.8270487 1.21436527 6.83922605 -3 10 C-2.01 6.7 -1.02 3.4 0 0 Z " fill="#265FA8" transform="translate(327,164)"/>
<path d="M0 0 C0.66 0.33 1.32 0.66 2 1 C0.66666667 5 -0.66666667 9 -2 13 C-2.66 13 -3.32 13 -4 13 C-3.52343588 11.20763933 -3.04366502 9.41613103 -2.5625 7.625 C-2.29566406 6.62726563 -2.02882813 5.62953125 -1.75390625 4.6015625 C-1 2 -1 2 0 0 Z " fill="#1A55A2" transform="translate(318,192)"/>
<path d="M0 0 C2 1 2 1 3.0625 3.8125 C3.76526962 6.2019167 4.44016804 8.57406149 5 11 C4.01 11.495 4.01 11.495 3 12 C1.68 8.37 0.36 4.74 -1 1 C-0.67 0.67 -0.34 0.34 0 0 Z " fill="#104EA0" transform="translate(224,169)"/>
<path d="M0 0 C1.90389849 2.85584773 2.69462177 4.9311762 3.625 8.1875 C4.01558594 9.53908203 4.01558594 9.53908203 4.4140625 10.91796875 C4.60742188 11.60503906 4.80078125 12.29210937 5 13 C4.01 13.495 4.01 13.495 3 14 C2.49307308 12.4188708 1.99473557 10.83498617 1.5 9.25 C1.2215625 8.36828125 0.943125 7.4865625 0.65625 6.578125 C0 4 0 4 0 0 Z " fill="#1150A0" transform="translate(244,150)"/>
<path d="M0 0 C0.33 0 0.66 0 1 0 C1.33 2.64 1.66 5.28 2 8 C-0.475 9.485 -0.475 9.485 -3 11 C-2.01 7.37 -1.02 3.74 0 0 Z " fill="#4473B6" transform="translate(203,264)"/>
<path d="M0 0 C0.33 0 0.66 0 1 0 C1 2.31 1 4.62 1 7 C-3.875 5.25 -3.875 5.25 -5 3 C-3.68 3 -2.36 3 -1 3 C-0.67 2.01 -0.34 1.02 0 0 Z " fill="#E3F1F6" transform="translate(456,138)"/>
<path d="M0 0 C0.33 0.66 0.66 1.32 1 2 C-1.17508418 6.69360269 -1.17508418 6.69360269 -4.1875 7.8125 C-4.785625 7.874375 -5.38375 7.93625 -6 8 C-4.55746343 4.63408134 -2.66735273 2.48952921 0 0 Z " fill="#1D57A3" transform="translate(40,39)"/>
<path d="M0 0 C0.33 0.99 0.66 1.98 1 3 C1.66 3 2.32 3 3 3 C3 5.31 3 7.62 3 10 C1 9 1 9 0.33203125 7.1875 C0.16058594 6.465625 -0.01085937 5.74375 -0.1875 5 C-0.36667969 4.278125 -0.54585937 3.55625 -0.73046875 2.8125 C-0.86388672 1.9153125 -0.86388672 1.9153125 -1 1 C-0.67 0.67 -0.34 0.34 0 0 Z " fill="#1B57A3" transform="translate(181,294)"/>
<path d="M0 0 C0.99 0.33 1.98 0.66 3 1 C4.6900877 4.80269732 5.19873962 7.05272168 4 11 C3.32880451 9.5437455 2.66318193 8.08492133 2 6.625 C1.62875 5.81289062 1.2575 5.00078125 0.875 4.1640625 C0 2 0 2 0 0 Z " fill="#1552A0" transform="translate(149,212)"/>
<path d="M0 0 C2 4 2 4 2 7 C-0.5 8.6875 -0.5 8.6875 -3 10 C-2.01 6.7 -1.02 3.4 0 0 Z " fill="#C5D9EA" transform="translate(325,204)"/>
<path d="M0 0 C0.99 0.495 0.99 0.495 2 1 C2.33 1.99 2.66 2.98 3 4 C3.66 4.33 4.32 4.66 5 5 C5.625 8.0625 5.625 8.0625 6 11 C5.01 11.495 5.01 11.495 4 12 C3.3291288 10.3767313 2.66342971 8.75132422 2 7.125 C1.62875 6.22007812 1.2575 5.31515625 0.875 4.3828125 C0 2 0 2 0 0 Z " fill="#1F59A3" transform="translate(218,156)"/>
<path d="M0 0 C0.66 0.33 1.32 0.66 2 1 C1.21654285 2.17219543 0.42297164 3.33763668 -0.375 4.5 C-0.81585938 5.1496875 -1.25671875 5.799375 -1.7109375 6.46875 C-2.13632812 6.9740625 -2.56171875 7.479375 -3 8 C-3.66 8 -4.32 8 -5 8 C-3.8141763 4.62496331 -2.72426311 2.35277269 0 0 Z " fill="#CDE1EC" transform="translate(50,50)"/>
<path d="M0 0 C0.515625 0.2475 1.03125 0.495 1.5625 0.75 C-4.8375 4.81153846 -4.8375 4.81153846 -7.875 4.5 C-8.390625 4.2525 -8.90625 4.005 -9.4375 3.75 C-3.0375 -0.31153846 -3.0375 -0.31153846 0 0 Z " fill="#3769AC" transform="translate(50.4375,34.25)"/>
<path d="M0 0 C0.66 0 1.32 0 2 0 C2.185625 1.7015625 2.185625 1.7015625 2.375 3.4375 C2.684375 5.2009375 2.684375 5.2009375 3 7 C3.66 7.33 4.32 7.66 5 8 C4.01 9.485 4.01 9.485 3 11 C0 4.5 0 4.5 0 0 Z " fill="#2960A8" transform="translate(262,273)"/>
<path d="M0 0 C2.475 0.99 2.475 0.99 5 2 C4.67 3.65 4.34 5.3 4 7 C3.34 7 2.68 7 2 7 C1.34 4.69 0.68 2.38 0 0 Z " fill="#E2F1F9" transform="translate(195,272)"/>
<path d="M0 0 C2.18975773 3.28463659 2.99806563 6.20696275 4 10 C2.68 10 1.36 10 0 10 C0 6.7 0 3.4 0 0 Z " fill="#2E64A8" transform="translate(267,219)"/>
<path d="M0 0 C1.96301592 3.50538557 2.95902388 7.13351728 4 11 C3.34 10.67 2.68 10.34 2 10 C2 9.34 2 8.68 2 8 C1.34 8 0.68 8 0 8 C-1.09658936 4.71023192 -0.79953138 3.28696233 0 0 Z " fill="#3468AB" transform="translate(177,218)"/>
<path d="M0 0 C2.64 0 5.28 0 8 0 C8 0.66 8 1.32 8 2 C8.66 2 9.32 2 10 2 C10 2.66 10 3.32 10 4 C6.7 3.01 3.4 2.02 0 1 C0 0.67 0 0.34 0 0 Z " fill="#C8DDED" transform="translate(431,132)"/>
<path d="M0 0 C0.66 0.99 1.32 1.98 2 3 C1.5390625 5.04296875 1.5390625 5.04296875 0.625 7.1875 C0.32851562 7.90292969 0.03203125 8.61835938 -0.2734375 9.35546875 C-0.51320312 9.89816406 -0.75296875 10.44085938 -1 11 C-1.66 10.67 -2.32 10.34 -3 10 C-2.01 6.7 -1.02 3.4 0 0 Z " fill="#225AA8" transform="translate(212,239)"/>
<path d="M0 0 C2.18975773 3.28463659 2.99806563 6.20696275 4 10 C3.01 9.67 2.02 9.34 1 9 C0.67 6.03 0.34 3.06 0 0 Z " fill="#104FA1" transform="translate(154,150)"/>
<path d="M0 0 C0.33 0 0.66 0 1 0 C1.36923077 4.55384615 1.36923077 4.55384615 -0.5 6.8125 C-0.995 7.204375 -1.49 7.59625 -2 8 C-2.66 7.67 -3.32 7.34 -4 7 C-2.68 4.69 -1.36 2.38 0 0 Z " fill="#CCDDEC" transform="translate(110,344)"/>
<path d="M0 0 C0.66 1.32 1.32 2.64 2 4 C1.34 4.66 0.68 5.32 0 6 C-0.64767793 8.57061311 -0.64767793 8.57061311 -1 11 C-1.33 11 -1.66 11 -2 11 C-1.85892253 9.54119891 -1.71197585 8.08296449 -1.5625 6.625 C-1.48128906 5.81289062 -1.40007812 5.00078125 -1.31640625 4.1640625 C-1 2 -1 2 0 0 Z " fill="#134F9F" transform="translate(303,237)"/>
<path d="M0 0 C-0.25561323 2.3431213 -0.59270772 4.67843403 -1 7 C-1.99 7.495 -1.99 7.495 -3 8 C-2.979375 7.21625 -2.95875 6.4325 -2.9375 5.625 C-2.81315937 3.01885039 -2.81315937 3.01885039 -4 1 C-2 0 -2 0 0 0 Z " fill="#1958B1" transform="translate(422,218)"/>
<path d="M0 0 C1.25541557 3.76624671 0.37061958 5.37188934 -1 9 C-2.125 7.25 -2.125 7.25 -3 5 C-2.24307556 2.96212652 -1.53745581 1.53745581 0 0 Z " fill="#1050A5" transform="translate(343,152)"/>
</svg>
